<!DOCTYPE svg PUBLIC "-//W3C//DTD SVG 1.1//EN" "http://www.w3.org/Graphics/SVG/1.1/DTD/svg11.dtd">
<svg version="1.1" id="Layer_1" xmlns="http://www.w3.org/2000/svg" width="152px" height="73.259px">
<path fill="#003A70" d="M103.839,6.988c-0.203,0.344-0.534,0.762-1.366,1.195c-1.347,0.696-2.845,0.072-3.526-1.246
	c-0.684-1.315-0.333-2.904,1.015-3.604c0.89-0.459,1.424-0.439,1.68-0.424l0.068,0.675c-0.182,0.003-0.667-0.021-1.363,0.343
	c-0.793,0.405-1.126,1.537-0.582,2.585c0.534,1.029,1.673,1.418,2.487,0.996c0.691-0.361,0.911-0.705,1.063-0.923L103.839,6.988z
	 M111.714,5.032L109.57,5.26l-0.178-1.692l1.502-0.161l-0.072-0.665L109.321,2.9l-0.16-1.536l2.052-0.218l-0.069-0.665l-2.911,0.307
	l0.552,5.227l3-0.315L111.714,5.032z M121.534,1.919l-1.044,3.703l-1.696-4.473l-0.698-0.196l-1.427,5.062l0.73,0.205l1.026-3.649
	l1.68,4.406l0.73,0.209l1.426-5.062L121.534,1.919z M127.638,5.6l1.267,0.97l-2.782,3.634l0.683,0.521l2.784-3.634l1.26,0.964
	l0.415-0.538l-3.213-2.457L127.638,5.6z M133.438,17.61l-1.14-1.831l1.441-0.9l0.802,1.283l0.566-0.352l-0.801-1.283l1.311-0.821
	l1.096,1.755l0.565-0.354l-1.546-2.485l-4.457,2.784l1.594,2.559L133.438,17.61z M135.411,26.258l2.22-1.997
	c0.19,0.355,0.787,0.826,1.499,0.685c0.649-0.129,1.218-0.837,0.983-2.017l-0.269-1.366l-5.156,1.014l0.165,0.847l2.317-0.459
	l0.102,0.509l-2.124,1.846L135.411,26.258z M137.775,22.846l1.634-0.317l0.09,0.453c0.134,0.69-0.195,1.06-0.611,1.137
	c-0.395,0.084-0.888-0.141-1.025-0.822L137.775,22.846z M37.358,37.469c-0.108-2.961,2.079-1.892,2.079-2.689
	c0-0.15-0.108-0.295-0.273-0.295c-0.439,0-0.685,0.099-1.314,0.099c-0.136,0-1.013-0.099-1.287-0.099
	c-0.328-0.026-0.549,0.569-0.711,0.844l-6.515,11.896c-0.439,0.82-0.714,1.34-0.852,1.34c-0.188,0-0.298-0.223-0.6-0.747
	l-6.515-12.64c-0.136-0.272-0.192-0.693-0.577-0.693c-0.49,0-0.983,0.099-1.475,0.099c-0.521,0-1.014-0.099-1.507-0.099
	c-0.248,0-0.465,0.045-0.465,0.269c0,0.847,2.602-0.545,2.602,5.3c0,2.642-0.329,5.28-0.655,9.334
	c-0.195,2.585-1.947,1.566-1.947,2.413c0,0.172,0.082,0.298,0.275,0.298c0.492,0,0.957-0.096,2.381-0.096
	c0.821,0,2.051,0.096,2.41,0.096c0.382,0,0.682-0.022,0.682-0.276c0-0.888-2.601,0.201-2.463-3.105l0.331-8.733
	c0.023-0.25,0.106-0.378,0.188-0.378c0.111,0,0.248,0.078,0.328,0.275l5.833,11.098c0.082,0.175,0.272,0.723,0.547,0.723
	c0.273,0,0.712-1.018,0.847-1.245l5.667-10.5c0.272-0.523,0.518-0.746,0.711-0.746c0.162,0,0.3,0.346,0.3,0.972l0.275,9.651
	c0.026,1.844-1.697,1.298-1.697,2.043c0,0.097,0.054,0.223,0.3,0.223c0.687,0,1.562-0.096,2.409-0.096
	c1.096,0,2.053,0.096,2.574,0.096c0.301,0,0.659,0,0.659-0.247c0-0.873-2.025,0.05-2.163-2.042L37.358,37.469z M45.353,37.096
	c0-1.669-0.056-1.569,2.574-1.569c1.093,0,3.939-0.15,4.652,0.696c0.439,0.574,0,1.769,0.657,1.769c0.166,0,0.547-0.203,0.547-2.964
	c0-0.296-0.056-0.544-0.273-0.544c-0.847,0-3.367,0.099-3.913,0.099c-1.152,0-2.574-0.099-7.749-0.099
	c-0.793,0-0.958,0.099-0.958,0.295c0,0.3,0.604,0.348,0.824,0.397c1.476,0.2,1.476,1.396,1.476,2.512v11.351
	c0,1.168-0.056,1.866-0.765,2.163c-0.876,0.396-1.152,0.354-1.206,0.648c0,0.196,0.166,0.247,0.413,0.247
	c1.094,0,2.243-0.075,3.336-0.096c2.081-0.051,4.164,0.096,6.243,0.096c1.206,0,1.807,0.052,2.682-0.845
	c0.659-0.646,1.368-1.516,1.368-2.414c0-0.051-0.026-0.3-0.22-0.3c-0.354,0-1.286,2.567-7.607,2.567c-2.299,0-2.081-0.6-2.081-2.067
	v-4.578c0-0.374-0.082-0.8,0.493-0.8h4.052c2.299,0,1.366,2.192,2.217,2.192c0.19,0,0.301-0.102,0.301-0.324
	c0-0.672-0.057-1.32-0.057-1.965c0-0.798,0.057-1.644,0.057-2.514c0-0.199-0.082-0.474-0.301-0.474
	c-0.659,0,0.082,1.993-2.766,1.993h-2.958c-1.094,0-1.039,0-1.039-0.85V37.096z M57.891,49.537c0,2.363-1.945,1.738-1.945,2.313
	c0,0.151,0.057,0.247,0.273,0.247c0.192,0,2.818-0.096,3.067-0.096c1.398,0,2.789,0.096,4.185,0.096
	c7.585,0,10.568-3.957,10.568-9.682c0-4.602-4.765-7.932-9.608-7.932c-2.356,0-4.132,0.099-5.939,0.099
	c-0.823,0-1.614-0.099-2.463-0.099c-0.166,0-0.383,0.072-0.383,0.248c0,0.669,2.245-0.125,2.245,2.413V49.537z M60.054,36.674
	c0-1.173,0.108-1.569,2.708-1.569c5.201,0.021,9.253,3.157,9.253,8.683c0,5.75-3.695,7.641-7.583,7.641
	c-1.23,0-3.313-0.298-4.218-1.12c-0.244-0.227-0.16-1.416-0.16-1.815V36.674z M76.505,49.363c0,2.46-2.135,1.642-2.135,2.363
	c0,0.247,0.083,0.37,0.575,0.37c0.383,0,0.958-0.095,2.628-0.095c1.178,0,2.353,0.095,2.983,0.095c0.467,0,0.549-0.072,0.549-0.247
	c0-0.743-2.438-0.173-2.438-1.867V36.62c0-1.866,1.973-1.291,1.973-1.886c0-0.203-0.084-0.25-0.521-0.25
	c-0.849,0-1.695,0.098-2.546,0.098c-1.013,0-1.998-0.098-3.012-0.098c-0.221,0-0.274,0.046-0.274,0.27
	c0,0.549,2.191,0.052,2.217,1.866V49.363z M91.146,34.254c-5.776,0-9.856,4.209-9.856,9.359c0,5.152,4.026,8.658,9.639,8.658
	c6.159,0,8.104-1.866,8.13-1.964l0.629-2.491c0.026-0.121-0.111-0.271-0.245-0.271c-0.166,0-0.328,0.15-0.384,0.324
	c-0.409,1.146-3.092,3.633-7.392,3.633c-5.256,0-7.991-4.329-7.991-8.662c0-4.629,2.571-7.862,7.911-7.862
	c3.529,0,5.473,1.618,7.172,4.279c0.108,0.177,0.3,0.822,0.628,0.822c0.467,0,0.22-0.822,0.165-2.138
	c-0.083-1.619-0.083-2.016-0.382-2.016c-0.275,0-0.44,0.245-0.66,0.245C97.718,36.17,96.292,34.254,91.146,34.254 M113.731,48.191
	c0.271,0.674,0.85,1.819,0.85,2.366c0,0.942-1.644,0.695-1.644,1.293c0,0.247,0.438,0.247,0.602,0.247
	c0.739,0,1.479-0.096,2.217-0.096c1.123,0,2.245,0.096,3.367,0.096c0.192,0,0.386,0,0.386-0.223c0-0.622-1.588-0.076-2.41-1.217
	c-0.63-0.875-0.957-1.919-1.368-2.84l-5.697-12.816c-0.081-0.197-0.271-0.919-0.574-0.919c-0.355,0-0.436,0.401-2.05,3.533
	l-6.544,12.691c-0.711,1.419-1.998,0.992-1.998,1.516c0,0.15,0.081,0.274,0.244,0.274c0.713,0,1.454-0.096,2.191-0.096
	c0.767,0,1.533,0.096,2.301,0.096c0.355,0,0.738,0.076,0.738-0.371c0-0.646-1.944,0.097-1.944-1.646
	c0-0.321,0.111-0.693,0.193-0.868l1.751-3.483c0.273-0.524,0.766-0.524,1.286-0.524h6.023c0.764,0,0.93,0.375,1.205,0.947
	L113.731,48.191z M108.559,37.616c0.163-0.299,0.301-0.299,0.438,0l2.682,5.999c0.138,0.324,0.166,0.495-0.438,0.495h-5.422
	c-0.354,0-0.547-0.099-0.354-0.449L108.559,37.616z M124.022,36.943c0-2.165,1.998-1.541,1.998-2.112
	c0-0.301-0.164-0.347-0.52-0.347c-0.41,0-1.068,0.099-2.629,0.099c-1.34,0-2.19-0.099-2.764-0.099c-0.355,0-0.548,0.046-0.548,0.322
	c0,0.497,2.299,0.322,2.299,1.616v12.616c0,1.17-0.052,1.868-0.767,2.165c-0.875,0.397-1.148,0.353-1.204,0.648
	c0,0.195,0.164,0.247,0.413,0.247c1.095,0,2.241-0.073,3.338-0.096c2.077-0.051,4.16,0.096,6.242,0.096
	c1.203,0,1.805,0.052,2.681-0.845c0.659-0.647,1.37-1.516,1.37-2.414c0-0.052-0.027-0.3-0.218-0.3c-0.357,0-1.288,2.567-7.611,2.567
	c-2.302,0-2.081-0.601-2.081-2.069V36.943z M19.039,32.053c0,1.941-0.959,2.065-1.26,2.141c-0.492,0.147-0.819,0.223-0.819,0.469
	c0,0.229,0.544,0.273,0.682,0.273c1.258,0,2.546-0.097,3.806-0.097c0.933,0,2.574,0.097,3.559,0.097
	c5.337,0,6.653-3.631,6.653-5.272c0-4.132-4.3-4.208-4.3-4.579c0-0.175,2.574-0.997,2.574-3.535c0-1.842-1.203-4.23-6.023-4.23
	c-2.188,0-3.282,0.099-4.376,0.099c-1.096,0-1.644-0.099-2.194-0.099c-0.328,0-0.737-0.025-0.737,0.349
	c0,0.498,2.437,0.249,2.437,2.144V32.053z M21.2,26.379c0-0.225-0.134-0.572,1.973-0.572c6.299,0,6.403,3.185,6.403,4.78
	c0,1.492-0.983,3.681-4.624,3.681c-3.886,0-3.752-0.523-3.752-2.313V26.379z M21.2,20.01c0-1.443-0.134-1.867,1.591-1.867
	c2.763,0,5.253,1.517,5.253,4.205c0,1.17-0.216,2.687-4.706,2.687c-2.463,0-2.138-0.123-2.138-0.919V20.01z M32.424,26.031
	c0,5.251,3.641,9.083,9.581,9.083c6.102,0,10.348-3.609,10.348-9.209c0-5.148-4.301-8.806-9.881-8.806
	C36.856,17.1,32.424,20.854,32.424,26.031 M34.42,25.308c0-3.93,2.63-7.39,7.229-7.39c5.335,0,8.702,4.406,8.702,8.935
	c0,4.604-3.198,7.515-7.198,7.515C37.733,34.368,34.42,29.917,34.42,25.308 M53.553,33.746c0.112,0.447,2.602,1.369,4.629,1.369
	c6.215,0,7.828-3.137,7.828-5.226c0-6.87-11.113-4.132-11.113-8.809c0-2.294,2.301-3.235,4.462-3.235
	c2.409,0,4.406,1.095,5.227,3.235c0.085,0.222,0.273,0.747,0.577,0.747c0.273,0,0.328-0.176,0.3-0.375l-0.41-3.385
	c-0.029-0.273-0.166-0.347-0.329-0.347c-0.272,0-0.326,0.275-0.574,0.275c-0.385,0-1.288-0.896-4.601-0.896
	c-3.147,0-6.079,1.517-6.079,4.676c0,6.497,11.116,3.809,11.116,8.611c0,2.611-2.545,3.932-5.147,3.932
	c-3.775,0-5.418-2.585-5.746-3.73c-0.14-0.524-0.14-0.823-0.521-0.823c-0.273,0-0.411,0.272-0.301,0.77L53.553,33.746z
	 M74.058,32.776c0,1.493-2.163,1.241-2.163,1.84c0,0.252,0.082,0.321,0.328,0.321c0.164,0,0.687-0.098,3.753-0.098
	c0.792,0,1.557,0.098,2.216,0.098c0.273,0,0.244-0.222,0.244-0.297c0-0.772-2.216,0.054-2.216-2.042V19.912
	c0-1.322-0.136-1.222,1.094-1.222h3.912c2.794,0,1.317,1.891,2.33,1.891c0.357,0,0.33-0.302,0.302-0.547l-0.138-1.992
	c-0.026-0.57-0.164-0.721-0.793-0.721c-0.547,0-3.065,0.099-8.021,0.099c-3.53,0-5.64-0.099-7.775-0.099
	c-0.492,0-0.465,0.673-0.492,0.969l-0.302,2.415c0,0.123,0.108,0.301,0.274,0.301c0.354,0,0.385-0.325,0.465-0.572
	c0.492-1.374,0.547-1.744,2.245-1.744h4.46c0.383,0.023,0.275,0.968,0.275,1.144V32.776z M83.095,26.031
	c0,5.251,3.64,9.083,9.582,9.083c6.103,0,10.347-3.609,10.347-9.209c0-5.148-4.299-8.806-9.883-8.806
	C87.529,17.1,83.095,20.854,83.095,26.031 M85.093,25.308c0-3.93,2.63-7.39,7.228-7.39c5.337,0,8.705,4.406,8.705,8.935
	c0,4.604-3.203,7.515-7.203,7.515C88.409,34.368,85.093,29.917,85.093,25.308 M105.212,31.405c0,3.489-2.408,2.389-2.408,3.258
	c0,0.128,0.026,0.273,0.357,0.273c0.188,0,1.613-0.097,2.572-0.097c1.342,0,2.107,0.097,2.764,0.097c0.272,0,0.3-0.196,0.3-0.32
	c0-0.672-2.408,0.198-2.408-2.041v-10.18c0-0.495,0.082-0.568,0.191-0.568c0.193,0,0.518,0.421,0.575,0.471l11.771,12.044
	c0.573,0.572,0.849,0.695,1.039,0.695c0.223,0,0.247-0.344,0.247-1.069V19.561c0-1.815,1.616-1.367,1.616-2.016
	c0-0.149-0.113-0.224-0.275-0.224c-0.657,0-1.834,0.099-2.765,0.099c-0.875,0-1.666-0.099-2.49-0.099c-0.164,0-0.3,0.075-0.3,0.248
	c0,0.823,3.036-0.123,3.036,3.136v10.402c0,0.2-0.026,0.272-0.082,0.272s-0.164-0.096-0.329-0.272l-13.058-13.215
	c-0.162-0.173-0.41-0.572-0.711-0.572c-0.41,0-0.85,0.099-1.259,0.099c-0.436,0-0.849-0.099-1.286-0.099
	c-0.137,0-0.41,0.099-0.41,0.248c0,0.921,3.312-0.522,3.312,4.656V31.405z M111.022,7.986c-10.033,0.733-18.08,8.514-19.139,18.5
	c-0.016,0.148,0.094,0.282,0.241,0.295c0.149,0.015,0.282-0.089,0.297-0.238c1.032-9.728,8.867-17.306,18.639-18.017
	c5.386-0.395,10.602,1.335,14.689,4.864c4.085,3.532,6.553,8.444,6.944,13.832c0.434,5.981-1.783,11.799-6.084,15.979
	c-0.106,0.102-0.108,0.275-0.007,0.382c0.106,0.108,0.275,0.111,0.385,0.005c4.416-4.288,6.692-10.268,6.246-16.406
	c-0.402-5.53-2.938-10.574-7.131-14.201C121.906,9.357,116.551,7.582,111.022,7.986"/>
<path fill="#003A70" d="M2.24,67.627h2.833v0.637H2.965v1.48h1.92v0.639h-1.92v1.668h2.108v0.639H2.24V67.627z M5.721,72.688h0.87
	l1.442-2.146l1.494,2.146h0.915l-1.873-2.646l1.706-2.415H9.445l-1.34,1.943l-1.349-1.943H5.888l1.696,2.428L5.721,72.688z
	 M14.771,67.758c-0.364-0.159-0.749-0.218-1.139-0.218c-1.545,0-2.678,1.035-2.678,2.596c0,1.61,1.067,2.641,2.671,2.641
	c0.295,0,0.767-0.024,1.152-0.182l-0.042-0.704c-0.256,0.153-0.741,0.247-1.103,0.247c-1.052,0-1.908-0.791-1.908-1.981
	c0-1.139,0.775-1.979,1.942-1.979c0.372,0,0.726,0.095,1.044,0.283L14.771,67.758z M15.755,72.689h2.836v-0.639h-2.112v-1.668h1.922
	v-0.639h-1.922v-1.48h2.112v-0.637h-2.836V72.689z M19.779,72.688h0.726v-2.022h0.709c0.913,0,1.791-0.397,1.791-1.521
	c0-1.154-0.862-1.518-1.899-1.518h-1.327V72.688z M20.505,68.266h0.616c0.449,0,1.116,0.232,1.116,0.872
	c0,0.665-0.565,0.89-1.016,0.89h-0.716V68.266z M24.935,72.688h0.726v-4.423h1.571v-0.639h-3.87v0.639h1.573V72.688z M28.031,72.689
	h0.724v-5.063h-0.724V72.689z M32.295,67.54c-1.539,0-2.438,1.116-2.438,2.616c0,1.541,0.895,2.62,2.438,2.62
	s2.435-1.079,2.435-2.62C34.729,68.656,33.832,67.54,32.295,67.54 M32.295,72.136c-1.168,0-1.668-0.97-1.668-1.979
	c0-1.028,0.55-1.985,1.668-1.979c1.117-0.007,1.668,0.95,1.668,1.979C33.963,71.166,33.463,72.136,32.295,72.136 M35.828,72.689
	h0.724v-4.163h0.015l2.291,4.163h0.927v-5.063h-0.724v4.076h-0.015l-2.231-4.076h-0.986V72.689z M40.583,72.689h0.762l0.514-1.277
	h2.479l0.516,1.277h0.79l-2.138-5.063h-0.762L40.583,72.689z M44.107,70.818h-2.015l1.006-2.51L44.107,70.818z M46.442,72.689h2.843
	v-0.639h-2.117v-4.424h-0.726V72.689z M55.789,67.758c-0.364-0.159-0.748-0.218-1.139-0.218c-1.545,0-2.674,1.035-2.674,2.596
	c0,1.61,1.063,2.641,2.667,2.641c0.296,0,0.769-0.024,1.152-0.182l-0.042-0.704c-0.256,0.153-0.741,0.247-1.103,0.247
	c-1.05,0-1.905-0.791-1.905-1.981c0-1.139,0.775-1.979,1.943-1.979c0.37,0,0.724,0.095,1.043,0.283L55.789,67.758z M56.18,72.689
	h0.76l0.514-1.277h2.481l0.515,1.277h0.792l-2.14-5.063H58.34L56.18,72.689z M59.705,70.818h-2.017l1.009-2.51L59.705,70.818z
	 M62.002,72.688h0.726v-2.247h0.436c0.383,0,0.621,0,0.847,0.492l0.776,1.755h0.826l-0.958-2.018
	c-0.159-0.312-0.266-0.419-0.492-0.506V70.15c0.588-0.102,1.044-0.536,1.044-1.152c0-1.211-0.962-1.371-1.965-1.371h-1.24V72.688z
	 M62.728,68.266h0.695c0.668,0,1.016,0.29,1.016,0.747c0,0.485-0.407,0.79-1.095,0.79h-0.616V68.266z M66.585,72.689h2.834v-0.639
	h-2.11v-1.668h1.922v-0.639h-1.922v-1.48h2.11v-0.637h-2.834V72.689z M70.609,72.689h0.811v-0.813h-0.811V72.689z M75.728,72.689
	h0.972l1.109-4.426h0.015l1.104,4.426h0.936l1.558-5.063h-0.77l-1.209,4.337h-0.014l-1.098-4.337h-1.029l-1.078,4.337h-0.015
	l-1.212-4.337h-0.796L75.728,72.689z M82.152,72.689h0.725v-5.063h-0.725V72.689z M85.248,72.688h0.726v-4.423h1.573v-0.639h-3.87
	v0.639h1.571V72.688z M88.381,72.689h0.726v-2.307h2.422v2.307h0.725v-5.063h-0.725v2.117h-2.422v-2.117h-0.726V72.689z
	 M95.828,67.54c-1.537,0-2.437,1.116-2.437,2.616c0,1.541,0.893,2.62,2.437,2.62c1.545,0,2.437-1.079,2.437-2.62
	C98.265,68.656,97.365,67.54,95.828,67.54 M95.828,72.136c-1.167,0-1.668-0.97-1.668-1.979c0-1.028,0.551-1.985,1.668-1.979
	c1.116-0.007,1.668,0.95,1.668,1.979C97.496,71.166,96.995,72.136,95.828,72.136 M103.303,67.627h-0.724v2.87
	c0,0.971-0.305,1.641-1.24,1.641c-0.935,0-1.239-0.67-1.239-1.641v-2.87h-0.726v2.966c0,1.422,0.718,2.183,1.965,2.183
	c1.248,0,1.964-0.761,1.964-2.183V67.627z M105.683,72.688h0.726v-4.423h1.571v-0.639h-3.87v0.639h1.573V72.688z M110.903,72.689
	h2.834v-0.639h-2.11v-1.668h1.924v-0.639h-1.924v-1.48h2.11v-0.637h-2.834V72.689z M114.383,72.688h0.87l1.444-2.146l1.492,2.146
	h0.913l-1.87-2.646l1.704-2.415h-0.825l-1.344,1.943l-1.348-1.943h-0.869l1.697,2.428L114.383,72.688z M123.433,67.758
	c-0.363-0.159-0.747-0.218-1.137-0.218c-1.547,0-2.676,1.035-2.676,2.596c0,1.61,1.065,2.641,2.667,2.641
	c0.297,0,0.769-0.024,1.152-0.182l-0.043-0.704c-0.254,0.153-0.74,0.247-1.101,0.247c-1.052,0-1.909-0.791-1.909-1.981
	c0-1.139,0.775-1.979,1.943-1.979c0.37,0,0.726,0.095,1.044,0.283L123.433,67.758z M124.419,72.689h2.835v-0.639h-2.11v-1.668h1.922
	v-0.639h-1.922v-1.48h2.11v-0.637h-2.835V72.689z M128.443,72.688h0.725v-2.022h0.711c0.913,0,1.791-0.397,1.791-1.521
	c0-1.154-0.863-1.518-1.899-1.518h-1.327V72.688z M129.168,68.266h0.616c0.45,0,1.117,0.232,1.117,0.872
	c0,0.665-0.565,0.89-1.016,0.89h-0.718V68.266z M133.599,72.688h0.726v-4.423h1.573v-0.639h-3.872v0.639h1.573V72.688z
	 M136.695,72.689h0.725v-5.063h-0.725V72.689z M140.959,67.54c-1.539,0-2.437,1.116-2.437,2.616c0,1.541,0.893,2.62,2.437,2.62
	c1.543,0,2.437-1.079,2.437-2.62C143.396,68.656,142.496,67.54,140.959,67.54 M140.959,72.136c-1.167,0-1.668-0.97-1.668-1.979
	c0-1.028,0.552-1.985,1.668-1.979c1.117-0.007,1.668,0.95,1.668,1.979C142.627,71.166,142.126,72.136,140.959,72.136 M144.49,72.689
	h0.724v-4.163h0.015l2.291,4.163h0.931v-5.063h-0.728v4.076h-0.015l-2.231-4.076h-0.986V72.689z M149.763,72.689h0.812v-0.813
	h-0.812V72.689z"/>
<rect x="1" y="60.596" fill="#003A70" width="150" height="0.45"/>
</svg>
