<?xml version="1.0" encoding="utf-8"?>
<!-- Generator: Adobe Illustrator 26.1.0, SVG Export Plug-In . SVG Version: 6.00 Build 0)  -->
<svg version="1.1" id="Layer_1" xmlns="http://www.w3.org/2000/svg" xmlns:xlink="http://www.w3.org/1999/xlink" x="0px" y="0px"
	 viewBox="0 0 262.7 45.1" style="enable-background:new 0 0 262.7 45.1;" xml:space="preserve">
<style type="text/css">
	.st0{fill:#FFFFFF;}
</style>
<path class="st0" d="M57.8,20.4c-2.9,0-5.3,2.1-5.3,5c0,3,2.4,5.1,5.3,5.1s5.3-2.1,5.3-5.1C63.1,22.5,60.8,20.4,57.8,20.4z
	 M57.9,28.5c-1.6,0-2.9-1.2-2.9-3s1.3-3,2.9-3c1.5,0,2.8,1.2,2.8,3S59.4,28.5,57.9,28.5z M66.8,23.4c0-0.6,0.6-0.9,1.2-0.9
	c1.5,0,2.4,0.8,2.4,0.8l0.9-1.8c0,0-1.1-1.1-3.2-1.1s-3.7,1-3.7,2.8c0,3.1,4.7,2.9,4.7,4.4c0,0.6-0.6,0.9-1.3,0.9
	c-1.6,0-2.6-1.1-2.6-1.1l-1.1,1.7c0,0,1.3,1.4,3.7,1.4c2.3,0,3.7-1.3,3.7-2.9C71.5,24.5,66.8,24.7,66.8,23.4z M76,26.5v-3.7h2.2
	v-1.9H76v-2.8h-2.3v2.8h-1.3v1.9h1.2v4c0,3.2,2.7,3.6,4,3.6c0.5,0,0.7-0.1,0.7-0.1v-2.1h-0.4C77.3,28.3,76,28.1,76,26.5L76,26.5z
	 M84.7,20.4c-2.9,0-5.3,2.1-5.3,5c0,3,2.4,5.1,5.3,5.1s5.3-2.1,5.3-5.1C90,22.5,87.6,20.4,84.7,20.4z M84.7,28.5
	c-1.6,0-2.9-1.2-2.9-3s1.3-3,2.9-3c1.5,0,2.8,1.2,2.8,3S86.2,28.5,84.7,28.5z M97.4,20.4c-1.9,0-3,1.2-3.4,2v-1.8h-2.3v9.6h2.4v-4.4
	c0-0.5,0-0.9,0.2-1.3c0.4-1.2,1.3-2,2.6-2c1.2,0,1.5,0.8,1.5,2v5.7h2.4v-6.1C100.8,21.6,99.5,20.4,97.4,20.4z M113.7,28.3
	c-2.8,0-4.5-2.3-4.5-4.8s1.7-4.6,4.5-4.6c2.1,0,3.7,1.4,3.7,1.4l1.2-1.8c0,0-1.7-1.8-4.9-1.8c-3.9,0-6.9,3-6.9,6.9c0,4,2.8,7,6.9,7
	c3.4,0,5.3-2.2,5.3-2.2l-1.3-1.8C117.6,26.6,116,28.3,113.7,28.3z M126.3,20.4c-1.7,0-2.8,1-3.3,1.9v-5.5h-2.4v13.4h2.4v-4.4
	c0-0.5,0-0.9,0.2-1.2c0.4-1.2,1.3-2,2.6-2c1.2,0,1.5,0.8,1.5,2v5.7h2.4v-6.2C129.6,21.6,128.4,20.4,126.3,20.4z M147.9,21.1v0.5
	c0,0-0.7-1.2-2.8-1.2c-2.5,0-4.4,2-4.4,5s1.7,5.1,4.3,5.1c2.2,0,3-1.6,3-1.6v1.4h2.3V16.9h-2.4L147.9,21.1L147.9,21.1z M145.6,28.5
	c-1.4,0-2.4-1.2-2.4-3c0-1.9,1.1-3,2.4-3c1.6,0,2.4,1.5,2.4,3C148,27.6,146.8,28.5,145.6,28.5z M154.6,23v-2.4h-2.3v9.6h2.4v-3.8
	c0-0.6,0.1-1.1,0.2-1.6c0.5-1.4,1.6-2,2.6-2h0.6v-2.4h-0.4C156.2,20.5,155.1,21.6,154.6,23z M163.7,20.4c-2.9,0-4.9,2.1-4.9,5
	c0,2.7,2,5.1,5.2,5.1c2.4,0,3.9-1.4,3.9-1.4l-0.9-1.7c0,0-1.2,1.1-2.8,1.1c-1.4,0-2.7-0.9-2.9-2.6h6.6c0,0,0.1-0.6,0.1-0.9
	C168,22.5,166.5,20.4,163.7,20.4L163.7,20.4z M161.4,24.3c0.2-1.2,1.1-2,2.3-2c1.1,0,1.9,0.7,1.9,2H161.4z M175.5,20.4
	c-1.9,0-3,1.2-3.4,2v-1.8h-2.3v9.6h2.4v-4.4c0-0.5,0-0.9,0.2-1.3c0.4-1.2,1.3-2,2.6-2c1.2,0,1.5,0.8,1.5,2v5.7h2.4v-6.1
	C178.8,21.6,177.6,20.4,175.5,20.4z M202.7,22.6h-6.1v-5.7h-2.5v13.4h2.5v-5.6h6.1v5.6h2.4V16.9h-2.4V22.6z M212.1,20.4
	c-2.9,0-5.3,2.1-5.3,5.1s2.4,5,5.3,5s5.3-2.1,5.3-5C217.4,22.5,215.1,20.4,212.1,20.4z M212.2,28.5c-1.6,0-2.9-1.2-2.9-3
	s1.3-3,2.9-3c1.5,0,2.8,1.2,2.8,3S213.7,28.5,212.2,28.5z M221.1,23.4c0-0.6,0.6-0.9,1.2-0.9c1.5,0,2.4,0.8,2.4,0.8l0.9-1.8
	c0,0-1.1-1.1-3.2-1.1s-3.7,1-3.7,2.8c0,3.1,4.7,2.9,4.7,4.4c0,0.6-0.6,0.9-1.3,0.9c-1.6,0-2.6-1.1-2.6-1.1l-1.1,1.7
	c0,0,1.3,1.4,3.7,1.4c2.3,0,3.7-1.3,3.7-2.9C225.8,24.5,221.1,24.7,221.1,23.4L221.1,23.4z M232.8,20.4c-2.3,0-3.1,1.6-3.1,1.6v-1.4
	h-2.2v13.5h2.4v-4v-0.8c0,0,0.8,1.3,2.8,1.3c2.5,0,4.4-2,4.4-5C237,22.5,235.4,20.4,232.8,20.4L232.8,20.4z M232.2,28.5
	c-1.6,0-2.4-1.5-2.4-3c0-2.1,1.2-3,2.4-3c1.4,0,2.4,1.2,2.4,3C234.6,27.4,233.5,28.5,232.2,28.5z M246.5,26.5v-3.7h2.2v-1.9h-2.2
	v-2.8h-2.3v2.8h-1.3v1.9h1.2v4c0,3.2,2.7,3.6,4,3.6c0.5,0,0.7-0.1,0.7-0.1v-2.1h-0.4C247.7,28.3,246.5,28.1,246.5,26.5L246.5,26.5z
	 M254.2,20.4c-2.3,0-3.8,1.2-3.8,1.2l0.9,1.7c0,0,1.3-0.9,2.6-0.9c1.1,0,1.8,0.4,1.8,1.7v0.1h-0.3c-1.6,0-5.7,0.2-5.7,3.3
	c0,1.9,1.5,3,3.3,3c2.2,0,2.9-1.7,2.9-1.7v1.5h2.2v-6C258.1,21.8,256.7,20.4,254.2,20.4z M255.8,26.1c0,1.2-0.9,2.5-2.2,2.5
	c-1,0-1.5-0.6-1.5-1.2c0-1.3,2-1.5,3.2-1.5h0.4v0.2H255.8z M183.5,23.4c0-0.6,0.6-0.9,1.2-0.9c1.5,0,2.4,0.8,2.4,0.8l0.9-1.8
	c0,0-1.1-1.1-3.2-1.1s-3.7,1-3.7,2.8c0,3.1,4.7,2.9,4.7,4.4c0,0.6-0.6,0.9-1.3,0.9c-1.6,0-2.6-1.1-2.6-1.1l-1.1,1.7
	c0,0,1.3,1.4,3.7,1.4c2.3,0,3.7-1.3,3.7-2.9C188.2,24.6,183.5,24.7,183.5,23.4L183.5,23.4z M136.7,16.9h2.4v13.4h-2.4V16.9z
	 M260.3,16.9h2.4v13.4h-2.4V16.9z M181.6,18.2C181.6,18.2,181.6,18.1,181.6,18.2L181.6,18.2V18c-0.1-0.6-0.6-1-1.2-1
	c-0.7,0-1.2,0.6-1.2,1.2c0,0.7,0.5,1.2,1.1,1.2c-0.2,0.2-0.5,0.3-0.9,0.4l0.2,0.8C181.5,20,181.6,18.7,181.6,18.2L181.6,18.2z
	 M49.3,23.3c1-0.6,1.6-1.7,1.6-2.9c0-2.2-1.7-3.5-4.1-3.5H42v13.4h4.8c2.5,0,4.6-1.2,4.6-3.9C51.5,25.1,50.8,23.7,49.3,23.3z
	 M44.4,19h2.3c1.1,0,1.7,0.7,1.7,1.7s-0.6,1.7-1.7,1.7h-2.4L44.4,19L44.4,19z M47,28.2h-2.6v-3.9H47c1.2,0,1.9,0.8,1.9,1.9
	C49,27.4,48.3,28.2,47,28.2z M131.9,20.7h2.4v9.6h-2.4V20.7z M133.1,16.8c-0.7,0-1.3,0.6-1.3,1.3c0,0.7,0.6,1.3,1.3,1.3
	s1.3-0.6,1.3-1.3S133.8,16.8,133.1,16.8z M238.8,20.7h2.4v9.6h-2.4V20.7z M240,16.8c-0.7,0-1.3,0.6-1.3,1.3c0,0.7,0.6,1.3,1.3,1.3
	s1.3-0.6,1.3-1.3C241.4,17.4,240.8,16.8,240,16.8z"/>
<g id="s3HzsL_2_">
	<path class="st0" d="M19,0c0.5,0.1,1.1,0.2,1.6,0.3C24.4,1,27.5,3,30.1,5.8c2.9,3.3,4.6,7.1,5.5,11.4c0.9,4.7,0.7,9.4-0.8,13.9
		s-3.9,8.3-7.9,11.1c-2.8,2-5.9,3-9.3,2.9s-6.4-1.3-9-3.4c-3.6-2.9-5.9-6.6-7.3-11c-0.7-2.1-1-4.2-1.2-6.4c0-0.2-0.1-0.4-0.1-0.5
		v-2.3c0-0.2,0.1-0.3,0.1-0.5c0.1-1.1,0.2-2.3,0.4-3.4C1.3,13,3.2,8.9,6.4,5.4c2.3-2.5,5-4.2,8.3-5c0.8-0.2,1.7-0.3,2.5-0.4H19z
		 M34.6,23c0-3.4-0.5-6.3-1.5-9.2c-1.5-4.2-3.9-7.7-7.8-10.1C21,1.1,16.6,0.8,12.1,3.1c-3.5,1.7-6,4.5-7.7,7.9
		c-3,5.9-3.5,12.2-1.8,18.6c1.2,4.6,3.6,8.5,7.5,11.3c4.2,3,8.7,3.6,13.4,1.5c2.9-1.2,5.2-3.3,6.9-5.9C33.3,32.4,34.5,27.7,34.6,23z
		"/>
	<path class="st0" d="M2.6,22.5c0.1-4.7,1.2-9.1,3.9-13.1c1.9-2.8,4.3-4.9,7.6-6c4.5-1.5,8.6-0.5,12.2,2.4c3.4,2.7,5.4,6.3,6.4,10.5
		c1.6,6.6,1,12.9-2.6,18.8c-1.7,2.8-3.9,5-6.9,6.3c-4.5,2-8.7,1.5-12.7-1.4c-3.4-2.4-5.5-5.8-6.7-9.7C3,27.8,2.7,25.2,2.6,22.5z
		 M17.6,16.1c0,0,0,0.1,0.1,0.1c-0.1,0.1-0.3,0.1-0.4,0.3c-0.1,0.1-0.3,0.3-0.2,0.4c0,0.3,0.1,0.6,0.2,0.9c0.1,0.2,0.2,0.4,0.4,0.5
		c0.6,0.3,1.2,0,1.8-0.3c0.3-0.1,0.5-0.3,0.8-0.1c0.1,0.1,0.2,0.1,0.4,0c0.5,0,0.9-0.1,1.4-0.1c0.3,0,0.7-0.1,1-0.1v0.1
		c-0.2,0.1-0.3,0.1-0.5,0.2c-0.7,0.1-1.5,0.2-2.2,0.3c-0.6,0.1-0.8,0.2-0.8,0.9v0.7C19,19.2,19,19.2,18,19.4
		c-0.4,0.1-0.7,0.2-1.1,0.3c-1.1,0.3-1.7,1.1-1.6,2.2c0,0.2,0.2,0.5,0.3,0.5c0.8,0.3,1.6,0.3,2.4-0.1c0.4-0.2,0.9-0.4,1.4-0.5
		c0.2-0.1,0.4-0.2,0.5-0.3c0.5-0.5,1.1-1,1.7-1.5c0,0.7,0.4,0.6,0.8,0.6c0.2,0,0.4-0.1,0.6-0.1c0.5,0,0.7,0.2,0.7,0.6
		c0,0.7-0.1,1.4-0.6,2c-0.6,0.6-1.3,1.1-2.1,1.4c-0.1,0-0.2,0.2-0.4,0.4c-0.1,0.2-0.2,0.4-0.4,0.5c-0.6,0.4-1.3,0.7-1.9,1
		c-0.8,0.4-1.3,1-1.6,1.9c-0.1,0.5-0.1,1,0.3,1.3c0.7,0.5,1.4,1,2.2,1.4c0.4,0.3,0.7,0.1,0.8-0.4c0.1-0.3,0.2-0.6,0.2-0.9
		c0.2-1.3,0.8-2.3,1.5-3.3c1.1-1.5,2.3-3,3.8-4.1c0.5-0.4,0.8-0.5,1.3-0.4c-1,0.4-1.7,1-2.3,1.8c-0.8,1-1.6,2.1-2.4,3.2
		c-0.3,0.5-0.6,1-0.8,1.5c-0.2,0.5-0.2,1.1-0.2,1.6c0.1,0,0.1,0,0.2,0.1c0.1-0.2,0.3-0.4,0.4-0.6c0.8-1.5,1.7-3,2.5-4.5
		c0.2-0.3,0.4-0.5,0.7-0.7l0.1,0.1c-1.1,1.5-2,3.2-2.7,5c-0.2,0.5-0.3,1-0.4,1.5c-0.1,0.4,0,0.6,0.4,0.7c0.1,0,0.3,0.1,0.4,0.2
		c0,0.2,0.1,0.5-0.1,0.6c-0.2,0.2-0.3,0-0.4-0.2c-0.1-0.1-0.2-0.3-0.4-0.4c-0.2,0.5,0.4,1.1-0.2,1.5c-0.1,0-0.1-0.1-0.1-0.1
		c-0.3-0.6-0.4-0.6-1-0.2c-0.4,0.3-0.9,0.6-1.4,0.8c-1,0.5-2.2,0.7-3.3,0.8c-0.4,0-0.8,0-0.8,0.5c0,0.6,0.1,1.2,0.2,1.8
		c0.1,0.3,0.3,0.5,0.7,0.6c1.6,0.2,3.2,0,4.8-0.4c2.1-0.5,3.7-1.6,4.7-3.5c0.6-1.1,1.3-2.2,1.9-3.3c0.8-1.3,1.4-2.7,1.6-4.2
		c0.3-2.3,0.2-4.5-2.2-5.8c-0.4-0.4-0.7-0.7-1.3-0.5l-0.1-0.1c0.1-0.1,0.3-0.2,0.4-0.2c-0.2-0.6-0.4-1-0.5-1.5
		c-0.1-0.3-0.2-0.4-0.6-0.4c-0.1,0-0.2-0.1-0.3-0.2c-0.1-0.4-0.2-0.9-0.4-1.3c-0.4-1.1-0.7-1.2-1.4-0.3c-0.1,0.1-0.3,0.2-0.4,0.3
		c0,0,0-0.1-0.1-0.1c0.6-0.6,0.5-1-0.3-1.2c-0.1,0-0.1-0.1-0.2-0.2c0.1-0.1,0.3-0.2,0.4-0.2c0.8,0,1.7,0.2,2.2-0.8
		c0.1-0.1,0.4-0.2,0.2-0.4c-0.1-0.2-0.2-0.4-0.4-0.5c-0.4-0.3-0.9-0.7-1.3-1c-0.6-0.4-1.2-0.8-1.9-1.1c-0.4-0.2-0.9-0.1-1.1-0.7
		c0-0.1-0.1-0.1-0.2-0.2c-0.2-0.1-0.4-0.1-0.6-0.2c0-0.2,0-0.4-0.1-0.6c-0.2-0.3-0.5-0.5-0.7-0.8c-0.5-0.7-1.5-0.7-1.9,0
		c-0.3,0.5-0.6,0.9-0.8,1.4c-0.1,0.2-0.1,0.5-0.1,0.6c0.2,0.4,1.6,0.8,2,0.5c0,0,0-0.1,0.1-0.1c-0.1-0.1-0.2-0.1-0.3-0.2V9.9
		c0.4-0.1,0.9-0.1,1.3-0.1c0.1,0,0.2,0.3,0.3,0.4H18c-0.2,0-0.3,0-0.5,0.1c0,0,0,0.3,0.1,0.3c0.1,0.1,0.3,0.1,0.4,0.1
		c0.2,0,0.4-0.1,0.6,0l1.2,0.3c0.3,0.1,0.6,0.1,0.9,0.3c0.2,0.1,0.3,0.4,0.5,0.6L21.1,12c-0.8-0.7-1.8-0.7-2.8-0.6
		c0-0.5-0.3-0.4-0.6-0.3c-0.5,0.2-0.9,0.3-1.3,0.4c-0.2-0.2-0.4-0.3-0.5-0.5c-0.1,0-0.1,0.1-0.2,0.1c0.1,0.4,0.2,0.8,0.3,1.3
		c0.1,0.3,0.2,0.3,0.4,0.2l0.9-0.3v0.1c-0.1,0.1-0.2,0.1-0.3,0.2c-0.1,0.1-0.3,0.2-0.4,0.4c0.2,0.1,0.3,0.3,0.5,0.4s0.4,0.1,0.7,0.1
		c-0.4,0.3-0.7,0.6-1.1,0.9c0-0.1,0-0.2-0.1-0.3l-0.3-0.3c-0.1,0.1-0.2,0.2-0.2,0.3c-0.1,0.3-0.2,0.6-0.2,0.9
		c-0.1,0.3,0,0.5,0.4,0.5c0.1,0,0.4,0.2,0.4,0.3c0,0.3,0.2,0.4,0.5,0.4C17.3,16.1,17.5,16.1,17.6,16.1z M11,26
		c0-0.3,0.2-0.5,0.5-0.3c0.3,0.1,0.6,0.3,0.9,0.4c0.3,0.1,0.6,0.4,0.8,0.4c0.9-0.1,1.7,0.2,2.5,0c0.7-0.1,1.4-0.5,2-0.8
		c0.5-0.2,0.8-0.5,1.4-0.4s1-0.5,1-1.1c-0.1-0.5-0.2-1-0.3-1.6c-0.2-0.6-0.5-0.7-1-0.4c-0.8,0.4-1.6,0.9-2.7,0.8v0.5
		c-0.2-0.2-0.3-0.3-0.5-0.3c-0.6-0.4-1.2-0.9-1.8-1.3c-0.2-0.2-0.4-0.4-0.7-0.6c-0.1-0.1-0.2-0.2-0.3-0.2c-0.7-0.1-1.3-0.4-1.8-0.9
		c-0.2-0.2-0.5-0.2-0.7,0.1S9.8,20.8,9.5,21c-0.5,0.3-0.8,0.7-1,1.3c-0.4,1.6-0.9,3.1-1.2,4.7C7.1,28,7,29,7,30.1
		c0,0.6,0.2,1.2,0.3,1.7c0.1,0.3,0.4,0.6,0.5,1c0.3,1,1.6,1.8,2.6,1.5c0.7-0.2,1.3-0.2,2,0c0.8,0.2,1.5,0.3,2.3,0
		c0.2-0.1,0.4-0.1,0.6-0.2c1.1-0.3,2.2-0.6,3.2-1c0.2-0.1,0.4-0.3,0.4-0.5c0-0.6-0.8-1.5-1.4-1.7c-0.4-0.1-0.9-0.2-1.3-0.3
		s-0.7-0.1-1,0.2c-0.1,0.1-0.2,0.3-0.3,0.3c-0.1,0.1-0.3,0.1-0.5,0.1v-0.5c0-0.1,0.1-0.2,0.2-0.2c0.7-0.6,0.8-1,0.2-1.7
		c-0.2-0.2-0.2-0.4-0.1-0.7c0.1-0.1,0.1-0.3,0.1-0.5c-0.2,0-0.4-0.1-0.5,0c-0.5,0.2-0.9,0.5-1.3,0.8c-0.2,0.1-0.4,0.2-0.5,0.2
		c-0.1-0.1-0.1-0.2-0.2-0.3c0.4-0.3,0.7-0.6,1-0.9C12.8,27,11.9,26.5,11,26z M15.1,15.8c0.5-0.6,0.4-1.8-0.8-2
		c-0.6-0.1-1.2-0.2-1.9-0.3c-1.4-0.3-2.9,0.7-3.2,2c-0.2,0.6-0.4,1.3-0.6,1.9c-0.4,1,0.2,2,1.2,2.2c0.2,0,0.4,0,0.5-0.1
		s0-0.3-0.1-0.5c0-0.2-0.1-0.3-0.1-0.5l0.1-0.1c0.2,0.5,0.5,1,1,0.3c0.1,0.2,0.1,0.4,0.2,0.5c0.2,0.3,0.3,0.7,0.5,0.9
		c0.4,0.3,0.8,0.5,1.3,0.6c0.9,0.3,1.5,0,1.9-0.9c0.2-0.5,0.2-1.1,0.3-1.6c0-0.4-0.2-0.8-0.8-0.6c0.1-0.2,0.1-0.4,0.2-0.5
		C15.4,16.7,15.3,16.2,15.1,15.8z M11.2,39.2l0.1,0.1c0.9,0.7,2,1.2,3.1,1.5c2.5,0.7,5,0.7,7.4-0.3c0.3-0.1,0.5-0.3,0.3-0.7
		c-0.2-0.5-0.4-1.1-0.5-1.6c-0.2-0.7-0.2-0.8-0.9-0.4c-0.1,0-0.1,0.1-0.2,0.1c-1.2,0.7-2.5,0.6-3.8,0.4c-0.6-0.1-1.4-0.1-1.9,0.1
		c-0.9,0.4-1.7,0.4-2.5,0.1C11.7,38.4,11.5,38.5,11.2,39.2z M23.1,8.3C21.7,7.1,20.4,6,19,4.8c-0.1,0.8-0.2,1.5-0.3,2.2
		c0,0.1,0.1,0.2,0.2,0.3c1.9,1.6,3.9,3.1,6.1,4.3c0.1,0.1,0.3,0.1,0.3,0.1c0.6-0.3,1.3-0.5,2-0.9c-1.4-0.8-2.7-1.6-4.1-2.4v1.7
		c-0.6-0.4-1.2-0.8-1.8-1.3C22,8.7,22.5,8.5,23.1,8.3z M11.5,37.9c0.7-0.2,1.4-0.3,2-0.5c0.7-0.2,0.9-0.5,0.7-1.2
		c-0.1-0.3-0.3-0.6-0.5-0.8c-0.3-0.3-0.7-0.5-1.1-0.6c-0.6-0.1-1.2-0.3-1.7-0.2c-0.5,0-0.9,0.3-1.4,0.6c-0.3,0.2-0.5,0.4-0.2,0.7
		c0.2,0.3,0.4,0.7,0.6,1C10.4,37.4,10.7,38,11.5,37.9z M23.3,21.6c0-0.7-0.2-0.9-0.9-0.7c-0.3,0.1-0.6,0.1-1,0.2
		c-0.2,0-0.4,0-0.6,0.1c-0.5,0.3-0.7,0.8-0.8,1.4c-0.1,0.4,0.6,1.1,0.9,1.1C22,23.7,23.2,22.6,23.3,21.6z M19.6,5
		c2.1,2,4.3,4,7.1,5.1C24.9,7.6,22.4,6.2,19.6,5z M24.7,12.3c0-0.1,0.1-0.1,0.1-0.2c-0.1-0.1-0.2-0.1-0.3-0.2
		c-1.9-1.4-3.8-2.7-5.8-4.1c-0.1-0.1-0.3-0.1-0.5-0.1c0.1,0.2,0.1,0.4,0.2,0.6c0,0.1,0.1,0.1,0.2,0.1c1.8,1.3,3.6,2.5,5.4,3.8
		c0.1,0.1,0.3,0.2,0.5,0.2C24.5,12.5,24.6,12.4,24.7,12.3z M23.7,15c0.4,0.6,1.3,0.6,1.7,0c0.3-0.5,0.3-1,0.4-1.6
		c0.1-0.3,0-0.6-0.4-0.7s-0.6,0.1-0.8,0.4c-0.3,0.4-0.4,1-1,1.2c-0.2,0.1-0.1,0.3,0.1,0.3c0.3,0.1,0.6,0.1,0.9,0.2v0.1
		C24.3,15,24,15,23.7,15z M23.5,39C23.6,38.9,23.6,38.9,23.5,39c0.2,0,0.4,0.2,0.5,0.3c0.2,0.2,0.4,0.2,0.6,0c0.1-0.1,0.1-0.4,0-0.5
		c-0.4-0.8-1.3-1.1-2.1-0.8c-0.1,0-0.3,0.3-0.3,0.5c0.1,0.5,0.3,1,0.5,1.5c0,0.1,0.2,0.2,0.2,0.2c0.3-0.1,0.6-0.2,0.8-0.3
		c0.1-0.1-0.1-0.4-0.1-0.6S23.5,39,23.5,39z M26.1,38c-0.5-0.7-1.1-1.4-2.1-1.5c-0.1,0-0.3,0-0.4,0.1c-0.1,0.1,0,0.3,0.1,0.4
		c0.3,0.4,0.5,0.7,0.8,1.1C25.3,39,25.4,39,26.1,38z"/>
	<path class="st0" d="M20.7,12.7c-0.1,0.1-0.2,0.1-0.4,0.2c0.3,0.7,0.9,0.8,1.5,1c-0.6,0.1-1.4-0.2-1.8-0.7
		c-0.2-0.3-0.5-0.5-0.9-0.6c-0.3-0.1-0.7-0.3-0.8-0.8C19.1,12.3,19.8,12.6,20.7,12.7z M21.3,12.9c0.6,0.1,1.2,0.1,1.8,0.2
		c0.1,0,0.2,0.1,0.2,0.1c0,0.1-0.1,0.2-0.2,0.2c-0.2,0-0.5,0-0.7-0.1C22.1,13.3,21.7,13.1,21.3,12.9z M11.6,17.2
		c-0.1,0.3-0.1,0.6-0.2,0.9c-0.3-0.5-0.1-1.2,0.4-1.4c0.1,0,0.2-0.2,0.3-0.3c0.1-0.2,0.2-0.3,0.3-0.5c0.2,0.1,0.4,0.1,0.8,0.2
		c-0.3,0.2-0.4,0.2-0.6,0.4c-0.2,0.1-0.4,0.2-0.4,0.4C12.1,17.1,12,17.4,11.6,17.2z M9.4,17.5c0.1-0.5,0.2-1.1,0.4-1.6
		c0.8,0.3,0.8,0.4,0.5,1.2c-0.1-0.2-0.1-0.4-0.2-0.5H10c-0.1,0.4-0.3,0.7-0.4,1.1C9.5,17.5,9.4,17.5,9.4,17.5z M13,17.7l0.3-0.6
		L13.2,17c0.2,0,0.4-0.1,0.5,0s0.3,0.3,0.3,0.5c0,0.1-0.2,0.2-0.4,0.3C13.4,17.7,13.2,17.7,13,17.7z M14.7,14.8c0,0.2,0,0.5-0.1,0.6
		c-0.3,0.1-0.2,0.9-0.7,0.7c0.2-0.5,0.5-0.9,0.7-1.3C14.6,14.8,14.7,14.8,14.7,14.8z M14.6,19.1c-0.1,0.5-0.3,0.6-0.7,0.3
		C14.1,19.3,14.3,19.2,14.6,19.1z"/>
</g>
</svg>
