<?xml version="1.0" encoding="UTF-8"?>
<svg id="master-artboard" xmlns="http://www.w3.org/2000/svg" version="1.1" viewBox="0 0 1409.4 841.8">
  <!-- Generator: Adobe Illustrator 30.2.1, SVG Export Plug-In . SVG Version: 2.1.1 Build 1)  -->
  <defs>
    <style>
      .st0 {
        stroke-width: 1.1px;
      }

      .st0, .st1, .st2 {
        stroke: #000;
        stroke-miterlimit: 22.4;
      }

      .st1 {
        stroke-width: 1.1px;
      }

      .st3 {
        fill: #c5112e;
      }

      .st4 {
        fill-opacity: 0;
      }

      .st4, .st5 {
        fill: #003087;
      }

      .st6 {
        fill: #a51c30;
      }

      .st7 {
        fill: #fff;
      }

      .st2 {
        fill: none;
        stroke-width: 5.2px;
      }

      .st8 {
        fill: #595859;
      }
    </style>
  </defs>
  <rect id="ee-background" class="st4" width="1408.6" height="632.1"/>
  <g>
    <path id="Harvard" class="st7" d="M1327.7,319.6c-14.2,0-32.9,1.4-39.5,1.4s-18.8-.5-23.3-.5v3.7c7.8,1.5,12.1,4.3,12.1,11.5v104c0,7.4-4.4,10.6-12.4,12v3.8c4.5,0,18.3-.6,22.3-.6,6.6,0,23.9,1.1,38.1,1.1,49.4,0,79.6-29.3,79.6-68.9s-29-67.5-77-67.5c0,0,0,0,0,0ZM743,320c-7.3,0-26,1.1-32.6,1.1s-18.2-.5-22.7-.5v3.7c8.5,1.4,11.9,5.5,11.9,11.8v103.3c0,7.2-4.4,10.9-11.9,12.3v3.8c4.5,0,18.9-.6,22.5-.6s18.8.6,23.3.6v-3.8c-8.1-1.7-12.4-5.4-12.4-12.3v-46.3c2.3.2,4.2.5,6.3.9,10.3,1.7,16,6.4,20.6,12.3,7.4,9.3,20.7,28.3,28,37.2,8.5,10.3,17.1,14.2,28.2,14.2s11.8-.7,15.9-1.7v-2.9c-8.6-.4-16.9-9.2-23.2-16.9-6.4-7.7-22.5-30.2-28.2-36.8-4.7-5.5-9.3-8.1-9.3-8.1,20.5-5,33.9-17.1,33.9-35.1s-18-36.1-50.2-36.1h0ZM1167.8,320c-7.4,0-26,1.1-32.6,1.1s-18.1-.5-22.7-.5v3.7c8.5,1.4,11.9,5.5,11.9,11.8v103.3c0,7.2-4.4,10.9-11.9,12.3v3.8c4.5,0,18.8-.6,22.4-.6s18.9.6,23.5.6v-3.8c-8.1-1.7-12.5-5.4-12.5-12.3v-46.3c2.3.2,4.3.5,6.3.9,10.3,1.7,16,6.4,20.6,12.3,7.4,9.3,20.2,28.3,27.5,37.2,8.5,10.3,17.2,14.2,28.2,14.2s11.9-.7,16-1.7v-2.9c-8.7-.4-16.8-9.2-23.2-16.9-6.3-7.7-22.1-30.2-27.8-36.8-4.7-5.5-9.3-8.1-9.3-8.1,20.5-5,33.9-17.1,33.9-35.1s-18-36.1-50.2-36.1h0ZM589.7,320.1s-2.2,8.8-4,13l-43,103.7c-3.1,7.4-7.8,12.9-16.4,14.9v3.4l19.5-.3c2.8,0,14.5.3,19,.3v-3.4c-7.6-2-9.6-5-9.6-8.7s1.2-6.1,2.2-8.7l8.9-22.1h50.4l9.6,22c1.3,3.2,2.5,6.4,2.5,9.2s-2.1,6.6-8.7,8.2v3.4c4.9,0,19.5-.3,23-.3s18.8.3,23.7.3v-3.4c-9-2.3-12.6-7.4-15.8-14.6l-45.5-103.9c-1.8-4.3-3.9-13.1-3.9-13.1h-12ZM1016.6,320.1s-2.2,8.8-4,13l-43.1,103.7c-3.1,7.4-7.7,12.9-16.2,14.9v3.4c0,0,19.9-.3,19.9-.3,2.7,0,14.1.3,18.5.3v-3.4c-7.5-2-9.5-5-9.5-8.7s1.1-6.1,2.1-8.7l8.8-22.1h50.5l9.6,22c1.4,3.2,2.5,6.4,2.5,9.2s-2,6.6-8.6,8.2v3.4c4.8,0,19.5-.3,23-.3s18.8.3,23.7.3v-3.4c-9.1-2.3-12.5-7.4-15.7-14.6l-45.5-103.9c-1.8-4.3-4-13.1-4-13.1h-12ZM361.7,320.5v3.7c6.6,1.7,10.8,4.6,10.8,11.5v104.6c0,7.2-4.5,10-10.8,11.5v3.4c3.2,0,17.6-.3,21-.3s19.2.3,22.5.3v-3.4c-6.6-1.7-11-4.3-11-11.5v-49.4h78v49.4c0,7.2-4.4,10-10.7,11.5v3.4c3.3,0,18.1-.3,22.1-.3s18.1.3,21.4.3v-3.4c-6.6-1.7-11.1-4.6-11.1-11.5v-104.6c0-7.1,4.8-10,11.1-11.5v-3.7c-3.3,0-17.9.5-21.4.5s-18.8-.5-22.1-.5v3.7c6.6,1.5,10.7,4.3,10.7,11.5v43.7h-78v-43.7c0-7.1,4.7-10,11-11.5v-3.7c-3.3,0-18.5.5-22.5.5s-17.8-.5-21-.5ZM816.1,320.8v3.8c7.7,1.7,12.2,6.5,15.2,13l53.1,118.5h10.2l48.3-114.1c4.5-10.7,9.6-15.2,17.8-17.4v-3.8c-4.7,0-17.4.6-20.4.6s-13.9-.6-18.3-.6v3.8c5.4,1.1,9.3,4,9.3,8.1s-1.8,8.7-4.4,15.1l-32.8,79.1-34.8-79c-3.7-8.2-5.7-12.5-5.7-15.7s5-6.8,9.4-7.6v-3.8c-4.9,0-19.2.6-22.6.6s-19.5-.6-24.2-.6h0ZM736.6,328.6c22.1,0,34.3,11.2,34.3,29.4s-8,27.3-33.2,27.3-12.5-.2-16.8-.8v-54.5c4.6-.8,11.2-1.4,15.7-1.4h0ZM1161.6,328.6c22.1,0,34.2,11.2,34.2,29.4s-8,27.3-33.2,27.3-12.5-.2-16.8-.8v-54.5c4.6-.8,11.3-1.4,15.8-1.4h0ZM1321.3,328.6c37.7,0,59.8,24.6,59.8,59.7s-21,58-61.3,58-16.1-.6-20.9-1.4v-114.9c5.2-.9,14.8-1.4,22.5-1.4h0ZM590.7,351.4l21.4,50h-41.4s20-50,20-50ZM1017.7,351.4l21.3,50h-41.3s20-50,20-50Z"/>
    <g>
      <path id="Crimson-Fill" class="st3" d="M150.7,279.3H5.8s-.3,115.9-.3,115.9c0,142.1,142.5,232.6,143.9,233.5l.4.3c.4,0,1.3-.6,1.3-.6,24.2-15.8,145-101.5,145-232.4v-116.4c-.3-.3-145.4-.2-145.4-.2"/>
      <path id="Border" class="st2" d="M7.3,395.1v-115.5h289.1s0,17.2,0,116.3c0,146.4-145.8,232.2-145.8,232.2,0,0-143.3-90.1-143.3-232.9h0Z"/>
      <path id="Lion-Rampant-Black" class="st0" d="M209.1,563.7s0,0-.1,0h.1,0,.2,0,0c-.9-.8-2.1-2.3-2.8-2.9-1.1-5.1,6.8-8.5,2.9-14-.9-3.2-.2-7.4-3.4-9.9-2.3-1.9-5.3-2.2-8-3.9,0-1.3,1.7-.9,2.7-1.3,4.2-1.1,8,4,11,.2.4-2.9-2.3-5.3-4.1-7.2-6.2-4.4-15.7-2.7-20.5-9.3l.6-.5c6.1,1.3,12.6.2,17.2-3.8,2.7-3.4,5.3-6.8,9.4-8,4.2-3.2,4.7-8.5,4.7-13.8.2-2.1,1.1-3.9,2.7-5.4,2.3-2.1,8.1-1.3,7-5.7-3.2-1.7-6.6-3.2-10.4-2.8-1.7-.9.4-2.3.9-3,6.1-4,15.5-6.4,15.1-15.3-.6-1-.4-2.5-1.9-2.7-2.7.3-4.1,2.8-6.6,4-5.7,3.2-12.9,2.6-18.3,6.1-1.2,0-.8-1.5-.4-1.9,2.1-2.8,6.2-3,7.8-6.6,1.1-2.9,1.7-6.6,4.9-7.8,1.9-1.5,5-1.5,6.1-3.8-.2-1.3-1.7-2.1-2.8-2.5-5.5-1.7-10.8,1.5-14.6,5.3-4,1.7-8.5,3.2-11.6,6.5-.5.2-1.5-.2-1.5-1.2-.7-7.5,6.1-13,11-17.6,3.6-1,6.6-5.3,10.8-3.4,2.8,1.5,5.9,3.1,9.2,1.9,4.2-1.5,5.1-6.2,8.9-8.5,2.9-.9,6.8,3.2,8.5-.8.9-4.1-2.5-6.6-4.3-9.6,2.3-5.9.5-12.6-4.2-16.8-2.3-1.3-5.1-2.3-7.8-1.5-2.1,2.7,1.9,4.4,2.1,7,.9,10.8-10.8,13.3-17.8,17.8-13.2,6.6-29.3,16.8-30.2,33.8.2,9.5,4.1,17.8,10.6,24.5,3.4,5.8,8.9,11.3,6.8,18.7-1.3,3-4.9,3.4-7.7,3.4-11.4-.8-17.6-13.4-22.3-22.1-1.5-3.4-3.4-6.6-3.8-10.6.6-.5,1.1-.4,1.7,0,2.1,1.9,1.9,6.4,5.5,5.9,2.8-4,.8-8.7-.7-12.7-2.1-3.6-6.4-5.5-8.2-9.3-.2-2.8,4-1.1,4.2-3.9-1.5-4.9-1.7-10-1.1-14.6.7-2.1,3.8-1.9,3.8-4.5-1.3-4.7-1.3-9.4-1.1-14.6.5-3,3-6.2,1.3-9.4-3.4-1-.6-5.1-3.8-6.1-6.4,0-11.2-3.4-16.7-5.5-2.8-.7-4.9.9-7.2,1.5-3.6.7-7.4.7-9.8,3.4-1.7,2.1-1.3,4.3-1.3,7.2-.5,1.7-2.1.2-2.8,0-2.7-1.5-3.6-4.3-2.8-7.2.3-1.3-.2-2.7-1.3-3.6-1.7-1.1-4.2-1.7-6.2-.9-2.7.9-3.4,3.9-4.5,6.3-.2,1.9.2,4.1,1.1,5.7,3.8,4,9.1,5.5,13.2,8.9.7,2.3-.7,4.5-2.3,6.4-.2,2.1,2.8,2.1,2.5,3.9-3,.8-6,.2-8.3-1.7-1.5-1.3-1.9-4.2-4.4-4.6-2.3,0-2.7,3.1-3.6,4.6-.7,1.7-.2,4.5-1.7,5.9l-1.7-.2c-7.8-2.7-14.8-6.8-21.6-11.9-3.9-3-6.8-7.6-9.8-11.6-1.5-4.7-2.3-11.4-8.3-12.8-1.3.1-3,.3-3.2,1.9l-.4,1.9c-3,0-6-2.1-9.2-1-1.5,1-3,2.1-4,3.6-.2,3.4,4,2.1,4.5,4.8,0,2.5,1.9,4.5,3,6.2-.8,1.3-2.3,2.1-3,3.4l-1.9,4.7c.7,1.5,1.7,3.4,3.6,3.6,2.7-1.1,4.9.7,7.8.4,1.7.2,4.5-1.3,4.7,1.5.9,2.3,0,4.4-.2,6.4-2.5,3.6-5.7,6.2-9.3,8-1.1.7-1.1,2.5-.7,3.6,1.3,1.9,4.3,1.1,6.4.9,4-.2,7-2.5,10.8-2.8.9,1.9,2.5,4.2,4.3,5.1,3,.8,3.8-3.4,6.8-2.3,2.5,1.9,1.7,5.5,4,7.8.1,1.3-1.1,1.3-1.9,1.9-3.2,1.1-7.7,0-10.2,2.7-.4,1.5.9,2.9,2.1,3.4,2.8,1.5,6.4,1.9,9.8,2.5,3,.4,6.2-.7,9,0l-.9,1.5-9.2,6.2c-4.2,1.7-8.7,2.7-12.5,4.7-5.9,1.5-8.3-5.9-13.6-5.5-2.3,0-3.8.7-5.3,2.1-1.3,1.3-1.5,3.4-1.1,5.1.8,1.7,3.2.9,3.2,2.8-.2,5.3-4.8,9.1-5.1,14.6-.2,1.3.2,3,1.7,3.6,1,.5,2.5.2,3.2-.6,1.1-1.1,1.1-2.9,3-3.2,3.2.3,6.6.3,8.9-2.1,1.1-.2,2.3,1,2.3,1.9,0,1.3,0,2.9,1.3,3.4,4.7.2,7-4.7,9.1-8.1,2.1-.4,4.3-1.9,6.4-.6.8,3.2-1.9,5.5-2.4,8.5.2.8,1.1,1.5,2.1,1.7,5.7-.7,8.9-6.1,12.3-10.2.5-1.1,1.1-2.7,2.8-2.7,4.3,1.3,5.5-3.9,8.1-5.8h1.1c.4,1.3-.5,2.3,0,3.6,1.9,2.1,4-.2,5.9-.5l4-2.5c4.7,1.5,9.6,2.6,14.6,3.8,4,1.5,0,5.7,2.5,8.1-.5,1.3-2.3,1.7-4,1.7-8.3,1.1-18-1.1-24.6,5.1l-4,3.9c-6.2.2-9.4,5.5-15.1,6.5-3.8,2.7-9.6-1.1-12.1,3.2,1.9,4,6.6,5.3,10.8,6.4,1.7.8,4.5-.2,5.5,1.7.2,1.9.6,4.1,2.9,4.9,1.7.5,2.7-1.9,4.2-.6,2.1,2.9,5.1,4.2,6.8,6.8-1.3,2.5-4.5.9-6.8.9l-.4-.2c-3.4.4-7.8,2.1-10.4-1.1-3.6-2.7-6.4-6.8-11.6-6.8-2.8.7-5.8,1.9-6.4,5.1-.4,1.9,1.5,2.7,2.3,3.8-3.4,2.3-7,5.9-5.9,10.4.4.9.7,2.1,2.1,2.1s3-1.5,4.7-.6c.4,2.9-.4,7.2,3.1,8.6,2.7-.4,4.6-3.2,7.4-1.1,2.8,1.3,5.1-1.3,7.6-2.1,4,0,5.5,3.8,6.8,6.6,2.5,1.9,5.9,4.9,9.3,3.1,2.3-3.3-2.1-7.4,2.3-9.5,2.7-.7,4.9.2,7.6-.4,4.1.4,9.2.8,11.6-3.7l3.7-6.5.8-4c2.5-.7,6.1,3.2,7.2-.5-1.3-3.8-1.7-7.6-1.1-11.7.7-2.9,2.1-5.5,4-7.4l.9.4c1.1,4.7,1.3,9.4,3.4,13.8-.4,4.3-2.7,8.1-3.2,12.4-1.1,4.6-4.4,8.2-8.5,10.2-1,.8-1.7,2.1-1.1,3.4,1.1,2.1,3.9.9,6.1,1.3,5.9-.7,11.3-3.6,15.3-7.9,4.2,1.1,6.2-4,10-1.7,4,3,11.2-2.3,12.7,4.2-.6,3,2.3,8.5-2.7,9.8-4.9-.8-10.6-7.2-15.5-1.5-1.2,1.1-1.9,2.7-1.2,4.2.8,1.3,1.7,3,.4,4.1-1.3,2.3-3.2,5.1-2.1,8,.9,1.7,2.9,1.7,4.5,1.3,2.8-1.1,5.5,1.3,8.3,1.5,2.5,1.9,4.9,4.2,8.2,4,1.3-.7,1.1-2.4,2.1-3.6,2.1-1.7,6.4-1.3,6.4-5.1.5-2.8,3-5.4,5.5-6.8.5.2,6-1.2,7.6-3.9h0Z"/>
      <path id="Lion-Rampant-White" class="st7" d="M120.7,396.6c-1.9.3-2.4,2.4-2.8,4.1-.3,2.5,1,4.4,2.8,5.7,4.9,2.3,9.1,6.1,13.8,9.1h1.6c-2.5-5.1-8.6-6.4-12.6-10.7-1.5-2.1-1.5-4.5-.9-6.9,0-.9-1-1.5-1.9-1.3h0ZM147.7,396.6c-3.4,2.5-8.5,1-11.6,3.5-1.9,1.7,1.2,3.8-1.3,5.4-.4,1.3.2,2.2.9,3.1,3.2,2.8,7.3,6.2,6,10.7-2.3,5.7-5.6-1.1-8.8-1.3-1.1.2-1.9,1.2-1.9,2.5.3.7,1.2.6,1.9.6.7.4,1.8,1.1,1.6,2.2-.2,2.5-2.1,4.8-4.7,5.4-3.1,1.3-6.9.6-9.8-.9-1.7-.5-2.3-3-4.4-2.8-2.7,2.6-.3,6,.3,8.8-6.4,6.4-11.6,15.1-19.5,19.8-2.1,1.1-4.6,1.4-6.3,3.1.7.5,1.8.9,3.1.9,6.8-.2,13.8-1.3,19.5-4.7,2.3-1.1,3.7-3.5,6.3-4.1,3,1.3.2,4.5,1.6,6.6,1.7.5,2.3-1.1,3.5-1.9,1-.6,2.2-1,2.8.3,2.5,7,.5,14.5-1.9,20.8,1.5.4,1.7-1.2,2.8-1.6,4.7-6.8,10.3-13.3,11.6-21.4,4-1.9,3.8,4.2,6.3,5.7,2.1-1.5,2.1-5,2.5-7.2.5-.7,1.3-.5,1.9,0,2.1,3.4,4.6,7.2,8.2,9.1,2.3.7,4.5,2.4,6.9,2.2-.2-3.2-3.6-3.8-5.4-6.3-.9-2.3-2.2-4.4-2.2-7.2.6-1.7,2.6-1.7,3.8-2.2.2-2.5-.6-4.8,0-7.2.3-3-1.9-9.2,2.8-10.7l.3-7.6c-.2-1.1-1.9-1.7-1.9-2.8,0-2.1,1.9-2.6,2.5-4.1.5-1.9,1.1-3.8,1.3-5.7,0-.6-.7-1.3-1.3-1.3-2.3-.2-1.8-2.6-2.5-3.8-5.3-1.3-9.3-5.8-15.1-6h0ZM70,397.9c-.3.2-.6.9-.6,1.9-.4.9.1,2.5,1.3,3.5.5.4,1.5,1,2.2.3.4-.7.2-1.5,0-2.5,0-1.1-1.8-3.7-2.8-3.1ZM60.2,399.5c-1.1,1.1.4,3.6,0,5.3.4,2.8,3.8,1.7,5.4,3.8,2.3,3.8-3.1,4-4.4,6.3-1.7,2.7,2.2,1.7,3.1,3.8,2.3,1.1,3.7-1.4,6-1.3,2.3.9,3.8,3.5,4.4,6,2.3,5.5-2.3,10-4.7,14.2,3.8.6,6.6-3.1,9.8-4.4,2.9.7.3,4.1,2.2,5.7,1.9,1.3,3.5-1.1,5.3-.9,5.9.2,5.4,6.8,8.8,10.1.6.4,1.5.5,2.2.3,3.4-3.1,5.9-7,9.1-10.4,1.1-1.1,2.3-2.6,1.9-4.1-9.8-2.7-18.3-8.6-26.4-15.4-3.6-4.4-7.5-9.5-12.6-12-2.7-2.8-5.5-7.3-10.1-6.9h0ZM146.5,400.4c.5,0,1.1.4,1.6.6,2.1,1.1,3.8,3,5.4,4.7.3,1.3-.6,2.3-1.9,2.5-2.3.2-4.6-.2-6.3-1.9-1.7-1.3-.7-3.4-.3-5,.4-.5,1-.9,1.6-.9ZM233.7,402.3c-.3.9-.5,1.6-.3,2.5-.6,9.3-9.8,14.2-17,17.9-13,6.2-29.3,15.1-30.8,31.2-1.7,17,20.1,25.6,17.6,42.8-.6,3.6-3.8,5.8-6.3,7.9-9,2.7-17.9-3-23.6-10.4-7.4-8.7-11.2-19.1-13.8-29.9-1.9-2.3-5-3-6.9-5.7-4.1-2.1-3.9,4.4-7.9,4.4-2.1.2-1.4-2.6-3.5-2.2l-5,7.2c-1.3,2.7-4.7,4.6-5,7.6,1.5,2.9,6,1.6,8.8,2.5,4.3.8,7.1,4.5,10.7,6.6,6.4,5.9,8.6,14,7.2,22.7-1.9,7.4.9,14.3,3.1,20.8,1.2,2.8-.7,5.4-2.2,7.6-.7,3.9-2,8-3.8,11.6-.5,1.5-2,3.1-1.3,4.4,5.5-1,8.8-6.2,11-10.7,1.1-1.3,2.5,0,3.5.9,1.2.6,1.6-.7,2.5-.9,1.2-.5,2.2.2,3.1.9,2.5,2.5,6.4,1.3,9.8,2.2,3.6.4,7.3,2.7,8.2,6.3-.5,2.8,1,5.6.6,8.8-2.3,6.8-10.5,7.8-16.7,8.5-1.2.8-3,1.4-2.8,3.2.6,1.3,1.8,1.8,3.1,2.5,2.8,1.5,4-2.4,6.6-1.9,2.1.8.4,2.8,1.6,4.1,1.7.4,2.8-.4,4.7-.3,2.3-.3,3.6-2.4,3.8-4.7,1-2.8,4.7-3.4,6-6.3,1.1-.7,3,.3,4.1-.6-2.1-4-.4-8,2.2-11,.6-2.7,0-5.2-1.3-7.2v-4.4c-1.3-3.4-5.3-3.1-8.2-4.4-2.9-2.3-7.3-3.7-7.9-7.9.2-.5.7-1.4,1.3-1.3,3.7,1.5,8.2.9,12,.3,1.1.2,2.8.7,2.8-.6-.4-.7-1.1-1.4-1.9-1.6-6.1-1.9-12.5-2-17.3-6.6-1.9-3.2-5-5.4-5.3-9.1,3.2-3.6,6.3,1.7,10.1,1.3,5.3.6,10.7-.5,13.8-4.7,1.9-1.7,1.6-4.9,4.4-5.7,9.8-1.7,3.9-13.1,9.8-18.3.8-1.7,4.2-1.7,3.5-3.8-3.2-.4-5.8,1.2-8.8,1.6-.8-.3-1.4-1-1.6-1.9,2.1-6.2,7.9-11.5,14.2-13.5.7-.2,1.9-1.3,1.6-1.9-7.4.4-15,1.2-19.8,7.2-1.2.7-2.8,2.4-4.1,1.3-1.3-1.3-1.1-3.6-.9-5.4.3-3.4,3-6.2,5.7-8.5,3.6-1.1,5.2-5,6.3-8.2-.2-.8-.9-.3-1.3-.3-2.5,1.5-5.2,2.5-7.9,3.5-4.5,1-6,5.4-7.9,8.8-.8.4-1.8.4-2.5,0-3-3.4-3.3-8.1-2.2-12.3,2.5-11,12.4-17.4,21.7-21.7,3.6-1.5,6.1,1.6,9.1,2.2,7.2.2,8.2-9.2,15.4-9.4.2-1.7-2-2.3-2.8-3.8-.7-2.8,2.2-4.6,1.6-7.6-.2-2.5-.2-5.7-2.8-6.6h0ZM161.6,408c.7-.5,2.3-.2,2.5.9,0,1.5-.6,3-1.6,4.1-.9.6-1.8.3-2.2-.6-.4-1.7.3-3.4,1.3-4.4h0ZM150.3,421.5c.7-.2,1.5.4,1.9.9l-.3,3.1c-3.2,3.6-3.3,9.3-8.2,11.3-1.3.2-2.4-.6-2.5-1.9-.2-2.1-.7-4.9,0-6.9,2.1-1.1,2.7,3.2,4.4,1.3.7-3,3.2-5.4,4.7-7.9h0ZM115.9,456.1c-1.1,0-2,.2-3.1.6-7.4,7.2-15.1,14.4-24.6,17.9-6.1,1.1-10.6,5-16.7,6.3-3,1.7-7.8,2.2-8.2,6.6,1.5.7,3.1,1.3,5,1.3s2.9-2.6,4.4-4.1c.9-.9,2-.3,2.8.3.7,2.3,3,2.7,4.7,3.5,1.7-.2,2.1-1.8,2.5-3.1,1.5-2.9,5.1-3,7.9-2.8,1.3-.6,2.9-1.4,4.4-1.3,3.6.7,1.5,5.2,1.9,7.6.6.6,1.6,0,2.2-.3,2.6-2.8,4.1-6.2,5.7-9.8.7-.7,1.7-2.4,3.1-1.9,3.6,4.6,4.1-2.4,6.9-3.1,2.1-.9,5.1.7,6.9-1.3,1.9-3.4,2.1-8,2.5-12-.9-2.8-3.6-.2-5.7-.6-2.1-.3-2.1-2.3-2.8-3.8h0ZM66.2,472.5c-.3.1-.5.6-.6.9.2,1.7-.5,3.6.6,4.7,2.1.9,4.9.2,6.6-.9,0-2.3-2.8-2.8-4.1-4.1-.7-.4-1.8-1.1-2.5-.6ZM149.3,494.5l-9.4,2.8c-9.4.4-20.7,0-26.1,8.8l-5.4.6c-3.6,1.7-7,4.3-11,5-1.1.7-3.1.4-3.5,1.9,2.5,1.9,6,.6,8.8.6,1.5.5,1.8,2.4,2.2,3.8,1.5.7,2.6-1.2,4.1-.6.9.4,1.5,1.3,1.9,2.2.7,4.9,6.9,5.9,8.8,10.1.9,1.5.3,3.7-.6,5-1.5,2.1-4.5,1.5-6.9,1.3-4.5-.1-8.4-1.2-12.6.3-6.4,1.1-12.8-3-18.3.6-.4.4-.7,1.3-.3,1.9l6.6,2.8c.9,1.1-.5,2.6-.3,3.8l3.5.9c2.5,2.1,4.8-.4,6.9-1.6,2.5-1.7,4.5.5,6.6,1.3,1.3.8,3.2-.3,4.1,1.3,1.3,1.5.5,5.1,3.1,4.7.8-1.9,1.9-3.7,3.5-5,4.5-4,10.3-1.4,16-2.2,3.8-.3,2.8-4.8,5.7-6.3,1.9-3.2-1.5-5.1-3.1-7.6-1.3-3,.8-6.5,2.8-8.8,4-.7,3.5,4.3,5,6.6.6.5,1.6,1.7,2.5.9.2-3,.3-5.9.3-9.1,1.1-4.6,4.3-8.6,7.6-11.6,1.5-2.5,1.7-4.4,1.9-7.2-.5-2.7-1.2-6.5-4.4-7.2h0ZM88.2,528.2c-.7-.1-1.5,0-2.2.3-.2,1.1.4,3.2,1.6,4.1,1.9.2,4,.8,5.7-.3-1-1.8-2.9-3.8-5-4.1ZM175.7,562.2c-.2.1-.6.5-.6,1,.3.4.5.8,1.3.6.4,0,1.7.4,1.6-.6-.3-.6-1.5-1.4-2.2-1h0Z"/>
      <path id="Black-Stripe" class="st0" d="M7.5,363.6h288.8v19.9H7.5v-19.9s0,0,0,0h0,0Z"/>
      <path id="White-Rectangles" class="st7" d="M222.2,367.1h32.8v12.8h-32.8v-12.8ZM150.9,367.1h32.8v12.8h-32.8v-12.8ZM79,367.1h32.8v12.8h-32.8v-12.8ZM10.9,367.1h29.8v12.8H10.9v-12.8s0,0,0,0Z"/>
      <path id="Book-1-Black" class="st1" d="M54.8,293.8c9.6-4.1,20.4-1.2,30.9-1.8,2.7.6,6.8-1.4,8.6,1.6,0,3.1,0,6.1.2,9.2,1,2.2,4.1.4,5.8,1.6,1,.6,2.2,1.1,2.4,2.3.6,1.4.2,3-.6,4.3-2,2.2-4.5,1.4-7,2l-.8,1.2c.4,5.7-1.2,10.8,0,16.2-.2,1.2-.6,2.8.8,3.5,2.7,0,5.5,0,7.4,1.8.8,1.4.8,3.1.4,4.7-1.2,5.9-10.2-.8-9.2,6.1,0,2.6.6,6.1-.4,8.4-10.6,0-21.3-.8-31.3-.2-1.8,1.6-4.1,2.6-6.6,2.7-2.2-.4-3.7-1.6-5.5-2.7-9.6-.4-19-.4-28.2-.6-2.9-2.6-.8-6.6-1.8-10.4-1.6-1.8-3.9-.4-5.7-1.4-1.4-.2-1.8-1.6-2.6-2.6,0-2.1,0-3.9,1.6-5.3,1.6-1.2,3.7-1,5.7-1.2l1-1c-.6-6.4,1-12.5-.4-19.4-1-1.4-2.8-.2-3.9-1.2-1.8-.4-3.5-1-4.1-2.9-.4-1.6-.8-3.1.8-4.5,2.2-2.4,5.9.4,7.8-2l.8-9.4c1.6-2.8,5.3-1.4,8-1.4,4.7-1,10.6-.2,15.7,0,3.5.2,7,.8,10.2,2.2Z"/>
      <path id="Book-1-White" class="st7" d="M59,349.4c.4,1.6.2,3.5-1.2,4.3-.8,1-2.3,1.2-3.5.6-1.2-.2-1.4-1.6-1.6-2.6-.4-2.2,1.8-2.9,3-4.5,1.5.2,2.5,1.2,3.3,2.2M27.3,295c-1.8,1.3-4.1,3.9-3.3,6.3.7,16.4,0,31.1.7,46.6l1.4,1.6c7.7,0,16.1-.8,23.5.6.4.2.4.8.2,1.2-2,.8-4.3.4-6.4.4l-20-.4c-1.4-1.2-.8-3.9-.8-5.5s.6-4.3-1.6-5.5c-2.8-.6-5.5.2-7.3-2,1.4-3.9,7.7-.7,8.9-5.1.6-7.3-.6-14.5-.2-21.4-.8-3.9-5.1-2.7-7.9-3.3-.4-.4-.9-1-.8-1.8,2.4-2.3,7.1.4,8.9-2.9.8-3.1.2-6.1.6-9,1-1,2.7-1,4.1-.6v.8s0,0,0,0ZM91.6,295c.6,3.1-.8,7.2,1.2,10.3,2,1.2,4.9.6,6.9,1,.8.8.6,2,.2,2.8-2.2,2.2-6.7-.6-7.9,2.9,0,7.6-.4,15,.2,22.9l1.2,1c2.6.4,5.7-.6,7.4,1.3.2,1.2,0,2.4-1.1,2.8-2.6.6-6.3-.8-7.7,2-.6,3.1.4,6.3-.6,9.4l-1.4.6-27.6-.4c-.6-.4,0-.8.2-1.2l2.8-1,22.3.2c2.3-.6,2.3-3.5,2.5-5.3-.2-11,0-20.5-.2-31.1-.2-5.3.8-10.4-.4-15.5-.2-1.2-1.9-2-2.1-3.3,1.2-.6,3.3-.6,4.1.6M85.5,346.5c-.6,1.2-2.4.6-3.5,1h-6.3c-5.1-.2-10.2-.6-14.7.4-.8-.2-1.6-.7-1.6-1.7.6-1.8,2.8-1.2,4.3-1.8,6.1.2,13.3-.2,19.2,0,1,.4,2,1.2,2.6,2.2M87.7,298.5c-.2,15.9.2,31.5-.4,45.8-.4.8-1.2-.2-1.8-.6-1-2.4-.2-5.3-.2-7.6-.6-12.7,0-25.7,0-38.6.8-1,2,.2,2.4,1M53.4,296.2l.8,1.8c.4,13.1.4,26.5.4,40.2l-.4,5.1c-3.4.2-6.7-1.6-10.4-1.2-3.7-.4-7.9.4-11.2-.6-2-4.5-.6-9-1-13.9.2-9.8.4-21.8.4-32.4s1-1.1,1.6-1.3c6.8.5,14.3-1.2,19.8,2.3M82.6,295.2c0,15.9,0,31-.2,46.4-7.8.8-16.6-.6-24.5,1.6-1.7-1.6-.4-4.1-.7-6.2-.4-5.1,0-10.8-.3-16.1.3-7.6-.3-16.2.3-23.7,1.1-2.3,3.9-3.1,6.4-3.1l18.4.2.6.9h0s0,0,0,0ZM52.6,345.8c.2,1-.8,1.9-1.8,2.3-6.2-1.7-13.1-.5-19.8-1.3l-.2-.2c.4-1.2,1.4-2.2,2.8-2.2,6.6,0,13.1,0,19,1.4M29.3,296.8c.8,15.9-.2,31.1.2,46.2-.2.8-1,1.8-2,1.8-1.2-4.9-1-9.6-.6-14.5-.4-10-.2-21.1-.2-31.1.4-1,1.6-2,2.6-2.4"/>
      <path id="Book-2-Black" class="st1" d="M187,291.6c1.2-.2,2.4.8,3.3,1.4,1,3.7-.2,6.8.8,10.4,2.6,1,6.3.2,7.6,3.3.6,1.4.6,3.7-.4,4.9-2,2.6-6.4.2-7.8,3.1-.4,7-.6,11.9,0,18.6,2,2,5.5.4,7.2,3,1,1.2,1.4,2.5,1,4.1-1.6,2.6-4.9,2.6-7.6,3.1-1.2,1,0,2.8-.6,4.1-1,2.5,1.4,5.7-1.6,7.2-8,1.2-15.7-.4-23.9.2l-7.8.2c-2.2,1.4-4.7,3.6-7.4,2l-4.9-2.2c-5.9.2-11.4-.2-17.2,0-3.9-.2-9.4,1.6-12-2.2,0-3.1.6-6.2-.2-9.4-3-1-7.8.4-9.4-3.3-.4-1.1,0-2.7.4-3.9,2.2-3.1,7-.4,9.2-3l-.2-8.6c.6-4.1-.2-7.5-.2-11.4-2.9-1.2-8,.4-8.6-4.1-.4-2.4,1-4.3,3.1-4.7,1.9-.6,4.7.4,5.7-1.4l.6-9.2c2.4-3.9,8-1.6,11.6-2.2l17.8.2c2.8.4,5.3,3.1,8.1,1.4,10.6-4.3,22.5-.6,33.4-1.8h0Z"/>
      <path id="Book-2-White" class="st7" d="M188.2,295.2c0,3.5-.2,6.7.6,10.2,2.4,2.2,9-.9,7.6,4.3-2.1,1.4-5.1.4-7.4.8l-.6.8c-1,7.8.6,15.9,0,22.9.2.8.6,2.2,1.8,2.3,2.2.3,5.5-1.3,6.2,1.4-.3,4.7-6.4.4-8,4.1-.6,3.5,1,6.6-.4,10l-1,.6c-10-.2-19.8-.2-29.2-.4-.4-.2-.2-.8.2-1l1.8-1c7.8-.8,16.4,0,24.7-.8,1.2-.2,2.1-1.1,1.9-2.3,0-14.9.2-30.4.2-47-.4-2.4-2.7-3.7-3.1-5.9,1.4,0,3.9-.8,4.7.9M123.2,294.5c-.4,1.7-1.9,2.3-2.7,3.7-1.2,3.1.2,6.3-.4,9.6.2,13.5,0,26.3.2,39.5,0,1,.7,2.2,1.7,2.4l21,.4c1.1.2,2.5.6,3.3,1.4-.4,1.2-2,.8-2.9,1-7.8-.2-16.2.4-23.9-.6l-.8-.6c-.2-3.5.2-7.2-1.4-10.4-2.4-1-5.3,0-7.8-.8-1.2-.6-.8-2.2,0-2.9,2.6-1.4,7.4.7,8.8-2.8-.2-7.7.4-14.9,0-22.7-2.2-3.1-6.6-.2-8.6-3.1.8-4.5,7-.6,8.8-4.3l.6-9.2c1.2-1.2,2.8-.8,4.1-.6M154.3,351.2c0,1.6-.2,3.6-1.9,3.6-1.4.2-3.5,0-3.5-2,.4-1.4,1.6-2.6,2.9-3.3,1.4-.4,2.1,1,2.5,1.8M126.1,297.2c.6,13.5-.8,25.7,0,39.2-1.2,3.1,1.4,7.6-3.1,8.4-.8-13.5-.2-28-.6-42.7-.4-2.4,1-4.5,3-5.7l.8.8h0s0,0,0,0h0ZM184.3,299.5c-.2,14.9.4,30.9-.6,45.4-.8.2-1.8-.8-2-1.6-.2-6.1-.8-12.1-.4-18.6.4-8.5-.6-18.4.4-27.1,1-.6,2.6.6,2.6,1.8M148.5,345.8c.8.2,1.8,1,1.2,1.9l-1.6,1.4c-6.8-2.5-15.5-.8-22.7-1.9.6-1,1.2-2,2.2-2.8,6.8.6,14.3-.4,20.9,1.4M179.6,344.8c1,.6,2.2,1.6,2.2,2.6l-1,.3c-8.2.2-16.7-.9-24.3,1-1.2.2-2.5,0-2.7-1.3.7-1.8,3.1-2.4,5.1-2.6,7-.6,13.9,0,20.7,0M179,295.6c-.2,15.3.2,31-.2,46.2l-.8.4c-8.4.8-16.6-1.4-24.2,1.4-1.4-.8-.2-3.1-.6-4.5v-40.7c0-1.4.9-2.6,2.1-2.9,2.2-1.5,5.1-.9,7.9-1.3l15.4.4.4,1.1h0s0,0,0,0ZM150.4,326.6c.8-7.9.2-16.7.4-24.1,0-2.4.2-5.1-1.6-6.7-5.7-2.5-13.3-1.1-19.8-1.5-.4.2-1.2-.3-1,.6,0,15.4-.2,30-.2,45.2l.4,1.8c4.7.8,9.4.4,14.3.4,2.5.4,5.1,1.2,7.4,1.6.2-5.3.6-9.4.2-14.5l-.2-2.7s0,0,0,0Z"/>
      <path id="Book-3-Black" class="st1" d="M283.1,292.3c2.4,3,.8,7.1,1.4,10.6,2.5,2.2,8-.2,8.6,4.7.4,2-.8,3.3-1.8,4.5-1.8,1.8-4.9,0-6.4,2-.6,5.9,0,12.4,0,19,1.8,1.1,4.1.9,6,1.9,1,1.2,2,2.4,2,3.9-.2,1.6-1.2,2.7-2.7,3.3-1.5.7-4.3,0-5.1,2.2-.8,3.1.2,6.6-.4,9.9-2.2,1-4.7,1-7.1,1l-23.1-.2c-2.2,1.2-4.5,3.3-7.5,2.2-4.9-3.1-11.6-2.2-17.2-2.4l-17.2-.2c-3.1-2.7-.8-7.4-1.8-10.7-1.2-2-4.3-1.2-6.3-2.2-1.8-.8-2.2-2.8-2-4.3.2-2,2-2.9,3.7-3.3,1.4-.8,3.9.6,4.5-1.5,0-6.1-.4-12-.2-17.7-.4-3.5-5.1-1.4-7.1-2.8-1.8-1.1-1.9-3.3-1.6-5.3,1.6-3.3,5.5-2.6,8.5-3.5l.4-1,.3-10.2,1-.8,26.8.6c3.1,0,5.9,1.4,8.8,2.4,5.7-4.3,14.1-2.2,20.9-3.3,4.7,1,9.6.2,14.3,1.2Z"/>
      <path id="Book-3-White" class="st7" d="M244.9,346.3c.6.4.6,1.4,0,1.5-2.4,2.8-5.3-.6-8.4,0-5.1-.6-10.8,0-15.9-.6,1.4-4.3,7.4-1.7,10.8-2.5,4.5.6,9.6-.8,13.5,1.6M273.7,345.4c1,.6,2,1.6,2.2,2.5-8,1-15.8-.9-23.5,1.2-1.2-.2-1.6-1.5-1.2-2.3,1.6-1.8,4.1-1.4,6.5-1.8l16,.4ZM250.6,350.6c.2,1.8.2,4.3-2.2,4.3-1.6.2-2.9-.6-3.3-2-.4-2,.8-3.7,2.2-4.5,1.8-.2,2.6,1.2,3.4,2.2M217.7,294.8c-.4,1.5-2.3,2.7-2.9,4.3.2,16.1,0,33.5.6,50.1l1.4.8c8.6.2,17.8-1.8,25.2,1.8.4.2.2.2,0,.4-9.4-.2-18.8.6-28-.2l-.8-1c-.4-3.5.4-6.8-1.2-10-2.2-2-8.4.6-6.8-3.9,2.3-1.8,6,.6,7.4-2.4,0-8.2.4-15.5-.2-23.1-1.8-2.4-5.1-.8-7.4-1.4-.8-.8-1.4-2-.6-2.9,2.6-2.1,10,.6,8.6-5.5.8-2.6-1.2-7.4,2.4-7.6.8,0,1.8-.3,2.3.6M281.5,295.2c.8,3.7-.8,7.5,1.4,10.8,2.3.6,6.1-.8,7.2,1.6-.2,4.7-6.7,1-8,4.7.6,7.4-.6,13.5.2,21.5-.8.6-1,1.4-.4,2.2,2.1,1.8,4.9-1.2,7.1.8,1.4.4.6,1.6.6,2.3-1.8,2.6-6.1-.4-7.2,2.9l-.4,9.8-1.4.6-26.1-.2c-.4-.4-.2-.6.2-.8l3.1-1.2h19.8c1-.2,2.4-1,2.4-2.4-.2-15.4-.4-31.5-.4-48.3l-2.4-4.7c1-1,3.7-1.2,4.3.3M220.6,301.3v42.1c-.4,1.2-1.8,1.8-2.6,2.6l-.8-.6c-.2-4.5.2-9.6-.2-13.9v-3.3c-.3-9.2-.3-19.4.2-28.8.8-.8,1.6-2.4,2.6-2.7.8,1.8.4,2.9.8,4.7M277.8,299.1c-.4,11-.2,21.3.2,31.7-.2,4.9-.2,9.2-.2,13.7-.2.4-.2.6-.6.8-3.3-1.4-2.2-5.1-2.4-8,.2-4.1-.4-8.8.4-12.9l-.6-1.4.2-25.7c.8-1.8,2.4.8,2.9,1.8M272.7,299.7c0-1.8.2-3.9-.8-5.5l-7-.3c-5.1.8-10.8-.8-14.9,1.8-2,2.4-1,5.1-1.4,7.9.4,1.6.9,3.3,1.4,5l-.9,2.1-3-.6-.8-1.7c.3-1.2.7-2.4.9-3.7-.2-3.3,1-8.4-3.3-9.8-6.4-.5-12.3-.7-19.2-.7s-1,.2-1.2.6c.2,15,0,28,.2,42.8,0,1.8-.6,4.1,1.4,4.9,5.7-.8,10.8.2,16.3-.2,2.1,0,3.5,2,5.7,1.4.6-6.1.6-13.3.4-20-.2-.5.1-1.9-.8-2.1v-1.2l3.4.4.3,1.1c0,.1-.2.3-.4.4l-.4,20.2c.2.6.2,2.2,1.4,2,6.1-3.5,13.5-1.2,20.6-2l1.6-.6c.7-3.3.3-15.2.3-15.2.4-8.9.2-17.7.2-27"/>
      <path id="Lone-White-Object" class="st7" d="M249,318.5c-.4,1-2.2,1-3.1.6l-1-.4c.6-2.2,0-4.7,1.8-6.2,1.8,1.2,1.6,3.9,2.4,6.1"/>
      <path id="Veritas" d="M148.5,326c-2.4-2-3-4.9-4.9-7.3.8-1.2,2.2-1.4,3.1-2.4,1.6-1.5,3.2-3.7,2.4-6.1-.2-2-1.2-3.9-3.1-4.9-4.1-1.5-9.4-.9-13.5-.5-.8.4-1,1.1-.4,1.7,1.6.6,2.2,1.8,2.4,3.1-.2,5.3-.2,10.6-.8,15.9l-2.2,2.3c2.2,2,5.1.4,8.3,1,.8-1.4-1.4-2.4-1.8-3.9.4-1.6,0-3.7,1-5.1,2.9,2.6,3.9,6.6,7.4,9l4.6.3-.2-2.5c-.6.4-1.7-.5-2.3-.7M142.4,316.3c-1.3,0-3.5,1-3.9-.7.2-2.6-1-5.9,0-8.3,1.8-1.4,4.5-.8,5.9,1,.8,1.4.8,3.1.8,4.7-.8,1.4-1.2,3-2.8,3.3M250,321.8c.8,1.2,1.3,2.4,1.2,3.9l-1.6,2.2,1,.8c2.3-.2,5.5.6,7.6-.4-.6-1.2-2-1.6-2.8-2.4-2.8-7.2-4.7-14.8-6.8-22.2l-2.4,1.1c-1.4,6.6-4.1,12.7-5.7,19.6-.3,1.3-1.7,1.5-2.7,2.3-1.4.4-2-1.2-2.6-1.9-.2-5.9.6-10.8.2-17.1-.2-1,1-2.2,2-1.2,1.6.8,1.4,2.7,2,4.1.4.6,1.4.6,1.5-.4l1-6c-.8-2-2.5.2-4.1,0-2.9-.2-7.1.6-9.8-1.2-2.3.8-1.7,4.1-2.1,6.2-.2.4,0,.8.2,1,1.9-1.2,2.9-4.3,5.7-3.5l.2,5.9-.6,12.7c-.8,1-2.7,1.3-2.6,2.7,3.3,1,7.5,0,10.8.4,1.9.2,4.1.6,5.7,0,.4-.4.2-1-.2-1.4-1.2-.6-2.6-1.6-2.2-3.1.6-1,.8-2.9,2.6-2.4.4,0,.6.2.7.5l2.8.3h0c.4-.5.4-.7,1-.7M245.9,319.1l-1-.4c.6-2.2,0-4.7,1.8-6.2,1.8,1.2,1.6,3.9,2.4,6.1-.4,1-2.2,1-3.1.6M267.9,305.8c0,1.4,1,4-.2,5-1.4-1.2-1.6-2.4-3.8-3-1.2,0-2.4.2-2.6,1.6-.4,4.2,3.8,4.2,6.2,7,2.2,2.2,3.2,5.8,2.2,8.6-.9,2.3-2,3.6-4.2,3.6-2,.4-3.4-1-5-.2-.4,0-1.2.4-1.6-.2l.3-7.8c.2-.4.6-.6,1-.6,1.2,2.6.4,5.6,4,5.8,1.2-.2,2.2-.3,2.4-1.9.4-7-8.8-5.3-8.6-12.4.2-1.6.4-3,1.2-4.4,1.6-2.6,5.2-1,7.6-2.6,1-.4,1,1,1.2,1.6M169.6,305.4c-2,1-4.1,2.6-3.5,5.3-.6,4.7-.4,9.6-.2,14.7l3.1,2.7-.2.4c-3.3,0-6.4.6-9.8,0-1.4-1.5,1.8-2.3,2.4-3.5.6-5.5,1.2-11.2.6-17.3-.6-1.8-3.5-1-2.8-2.9,3-.4,6.8-.4,9.8,0l.6.5h0ZM74.5,309.1c-2,2.4-2.4-2.2-4.3-2.4-1.2-.1-3-.5-3.9.4-.4,2.6-.8,4.9,0,7.3.8.6,2.3.4,3.3.4,1.2-.8,1.8-3,3.3-2.8,1,1-.4,2.6.2,3.5-.4,1.5,1,3.3-.8,3.9-1.2-.6-1.8-2.8-3.3-2.8l-2.7.2c-1,3.5-.6,6.7,0,10,1.5,1.5,3.5.1,5.3.1,2.6-.5,2-4.1,4.1-3.7.6,1.4.8,3.6.4,5.1l-1.2.8-13.9-.2c-.6-.2-2-.2-1.4-1.2,4.5-2.7,2-8,2.6-12.3-.6-3.2,1.8-7.9-2.4-9.8-.2-1.2,1.2-.8,1.6-1.2,3.5,0,8.2,1.3,11-1.6,2.2,1.2,2,3.9,2.2,6.1M53.2,306c-3.9,3.1-4.1,8.6-5.9,13.1-1.6,2.6-.8,6.3-3.3,8.5-1,.3-1.8-.6-2-1.4-1.4-6.1-3.1-12.2-5.3-17.9-.2-1.8-4.3-2.2-1.9-3.5,2.9-.4,5.1.4,7.8.2.6,1.8-2.2,2.7-1.4,4.9,1.8,2.6,1.2,6.4,3.3,9l1-1c.2-4.5,5.3-8.6.9-12.5,1-1.7,3.9-.5,5.9-1.1.4.3,1.8.7.8,1.7"/>
    </g>
    <path id="Medical-School" class="st7" d="M957,516.6c-14.2,0-23.4,7.4-23.4,19.3s13.4,18.3,19.9,21.5c8.8,4.4,16.4,7.8,16.4,15.2s-5.8,11.6-15,11.6-9.2-1.1-12.5-3.4c-3.1-2.1-5.4-5.7-6.4-9.5h-1.9v14.5c5.3.6,11.1,3.3,20.9,3.3,16.3,0,25.3-8.2,25.3-19.6s-10.5-17-20.2-21.3c-8-3.5-16.5-7.9-16.5-15.8s3.9-10.9,13.2-10.9c8.2,0,15.8,2.9,18.4,11.3h1.9l.2-14.2c-6.3.3-10.9-2-20.3-2h0ZM710.4,516.7c-21.8,0-36.8,15.3-36.8,36.6s11.8,35.9,37.4,35.9,19.5-4.1,24.7-3.5l.8-15.5h-2c-3.5,10-11.5,13.8-22.4,13.8-19.4,0-26.3-17.2-26.3-31s8.7-31.1,24.8-31.1,18.8,4.7,22.7,13.8h2l-.6-15.5c-6.8.4-13.4-3.5-24.1-3.5h0ZM1035.2,516.7c-21.8,0-36.8,15.3-36.8,36.6s11.9,35.9,37.4,35.9,19.6-4.1,24.7-3.5l.7-15.5h-2c-3.5,10-11.4,13.8-22.4,13.8-19.3,0-26.3-17.2-26.3-31s8.7-31.1,24.8-31.1,18.8,4.7,22.7,13.8h2l-.7-15.5c-6.7.4-13.3-3.5-24-3.5h0ZM1207.8,516.7c-21.9,0-35.8,16.4-35.8,36.5s13.9,36,35.8,36,35.8-16,35.8-36-14-36.5-35.8-36.5ZM1295.4,516.7c-21.9,0-35.8,16.4-35.8,36.5s13.9,36,35.8,36,35.8-16,35.8-36-13.9-36.5-35.8-36.5ZM519.6,517.4c-1.3.5-3.8.6-5.1.6h-43.8v2c4.4.7,6.2,2.8,6.2,6.1v53.2c0,3.7-2.3,5.7-6.2,6.4v1.9c2.2,0,9.8-.4,11.9-.4h22.1c7.5,0,11.5,0,18.2.6l1.9-14.4-1.9-.4c-2.2,5.3-4.8,8.9-13.7,8.9h-21.1v-28.2h15.1c2.1,0,4.7.2,5.8.5,3.2.8,4.4,2.9,5.3,5.7h1.9c0-2.3-.2-7.4-.2-8.8s0-6.1.2-8.3h-1.9c-.6,2.8-2.1,4.6-5.3,5.3-1.1.3-3.7.4-5.8.4h-15.1v-25.1h18.6c8.6,0,11,3.5,12.6,8h1.9l.3-14.1h-1.8ZM575.6,517.5c-7.3,0-16.5.8-19.9.8s-9.7-.3-12.1-.3v1.9c4,.7,6.3,2.2,6.3,5.9v53.6c0,3.9-2.3,5.5-6.5,6.2v1.9c2.3,0,9.4-.3,11.5-.3,3.4,0,11.8.6,19.2.6,25.4,0,40.9-15.2,40.9-35.6s-14.9-34.8-39.5-34.8h0ZM778.2,517.6s-1.1,4.5-2,6.7l-22.2,53.6c-1.7,3.8-4,6.7-8.4,7.7v1.8c-.1,0,10.2-.2,10.2-.2,1.5,0,7.3.2,9.6.2v-1.8c-3.9-1-4.9-2.6-4.9-4.5s.6-3.1,1.2-4.5l4.5-11.5h26.1l5,11.4c.7,1.7,1.2,3.3,1.2,4.7s-1.1,3.4-4.5,4.3v1.8c2.5,0,10-.2,11.8-.2s9.7.2,12.3.2v-1.8c-4.6-1.2-6.3-3.8-8.1-7.5l-23.5-53.7c-1-2.2-2.1-6.7-2.1-6.7h-6.3,0ZM1080.8,517.9v1.9c3.4.9,5.6,2.4,5.6,5.9v53.9c0,3.7-2.4,5.2-5.6,6v1.8c1.7,0,9.3-.2,11.1-.2s9.9.2,11.5.2v-1.8c-3.4-.9-5.7-2.3-5.7-6v-25.5h39.9v25.5c0,3.7-2.2,5.2-5.5,6v1.8c1.7,0,9.4-.2,11.5-.2s9.5.2,11.2.2v-1.8c-3.4-.9-5.8-2.4-5.8-6v-53.9c0-3.7,2.5-5.2,5.8-5.9v-1.9c-1.7,0-9.5.3-11.2.3s-9.7-.3-11.5-.3v1.9c3.4.7,5.5,2.3,5.5,5.9v22.6h-39.9v-22.6c0-3.7,2.4-5.2,5.7-5.9v-1.9c-1.6,0-9.5.3-11.5.3s-9.4-.3-11.1-.3ZM631.6,518v1.9c4.1.9,6.3,2.8,6.3,6.4v53c0,3.7-2,5.6-6.3,6.4v1.9c2.3,0,10.3-.4,12.2-.4s9.6.4,11.9.4v-1.9c-4.3-.9-6.3-2.8-6.3-6.4v-53c0-3.7,2.2-5.5,6.3-6.4v-1.9c-2.4,0-10.1.3-11.9.3s-9.9-.3-12.2-.3h0ZM831.3,518v1.9c4.1.9,6.3,2.8,6.3,6.4v53c0,3.7-2.1,5.6-6.3,6.4v1.9c2.3,0,10.2-.4,12.1-.4h22.3c7.5,0,11.5,0,18.2.6l1.9-14.4-1.9-.4c-2.2,5.3-4.9,8.9-13.8,8.9h-21.1v-55.7c0-3.7,2.2-5.5,6.3-6.4v-1.9c-2.3,0-10,.3-11.9.3s-9.8-.3-12.1-.3ZM1347.3,518v1.9c4.2.9,6.3,2.8,6.3,6.4v53c0,3.7-2,5.6-6.3,6.4v1.9c2.4,0,10.4-.4,12.3-.4h22.3c7.5,0,11.5,0,18.1.6l1.9-14.4-1.9-.4c-2.2,5.3-4.8,8.9-13.8,8.9h-21.1v-55.7c0-3.7,2.1-5.5,6.3-6.4v-1.9c-2.4,0-10,.3-11.9.3s-10-.3-12.3-.3ZM367.2,518.1v1.9c4.1.7,6,2.8,5.8,6.1l-3.9,51.7c-.4,4.1-2.6,7-7,8v1.8l9.9-.2c1.4,0,7.4.2,9.7.2v-1.8c-4.6-1.3-5.9-3.9-5.8-7.1l3-45.9,23.7,54.9h4l24-55,3,46.1c.2,3.1-1.1,5.8-5.7,7.1v1.8c2.3,0,10.5-.2,12-.2l12,.2v-1.8c-4.4-1-6.6-3.6-7-8l-3.7-51.7c-.3-3.4,1.3-5.2,5.5-6.1v-1.9c-2.8,0-7.4.2-9.1.2s-5-.2-7.3-.2l-23,53.5-22.8-53.5c-2.2,0-5.9.2-7.5.2s-7-.2-9.7-.2h0ZM1207.8,521.8c16.4,0,23.5,15.2,23.5,31.4s-7.2,30.9-23.5,30.9-23.6-14.8-23.6-30.9,7.3-31.4,23.6-31.4h0ZM1295.3,521.8c16.3,0,23.5,15.2,23.5,31.4s-7.2,30.9-23.5,30.9-23.6-14.8-23.6-30.9,7.3-31.4,23.6-31.4h0ZM572.2,522.1c19.5,0,30.9,12.7,30.9,30.7s-10.9,30-31.6,30-7.9-.3-10.4-.7v-59.3c2.7-.4,7.2-.7,11.1-.7ZM778.8,533.7l11.1,25.8h-21.4l10.4-25.8Z"/>
  </g>
  <g>
    <path class="st7" d="M310.8,122.1c-15.5,0-28.4,11.3-28.4,26.8s12.9,27.3,28.4,27.3,28.4-11.3,28.4-27.3-12.3-26.8-28.4-26.8ZM311.3,165.6c-8.6,0-15.5-6.4-15.5-16.1s7-16.1,15.5-16.1,15,6.4,15,16.1-7,16.1-15,16.1ZM359,138.2c0-3.2,3.2-4.8,6.4-4.8,8,0,12.9,4.3,12.9,4.3l4.8-9.7s-5.9-5.9-17.2-5.9-19.8,5.4-19.8,15c0,16.6,25.2,15.5,25.2,23.6s-3.2,4.8-7,4.8c-8.6,0-13.9-5.9-13.9-5.9l-5.9,9.1s7,7.5,19.8,7.5,19.8-7,19.8-15.5c0-16.6-25.2-15.5-25.2-22.5ZM408.4,154.8v-19.8h11.8v-10.2h-11.8v-15h-12.3v15h-7v10.2h6.4v21.4c0,17.2,14.5,19.3,21.4,19.3s3.8-.5,3.8-.5v-11.3h-2.1c-3.2.5-10.2-.5-10.2-9.1h0ZM455,122.1c-15.5,0-28.4,11.3-28.4,26.8s12.9,27.3,28.4,27.3,28.4-11.3,28.4-27.3-12.9-26.8-28.4-26.8ZM455,165.6c-8.6,0-15.5-6.4-15.5-16.1s7-16.1,15.5-16.1,15,6.4,15,16.1-7,16.1-15,16.1ZM523.1,122.1c-10.2,0-16.1,6.4-18.2,10.7v-9.7h-12.3v51.5h12.9v-23.6c0-2.7,0-4.8,1.1-7,2.1-6.4,7-10.7,13.9-10.7s8,4.3,8,10.7v30.6h12.9v-32.7c0-13.4-7-19.8-18.2-19.8ZM610.5,164.5c-15,0-24.1-12.3-24.1-25.7s9.1-24.7,24.1-24.7,19.8,7.5,19.8,7.5l6.4-9.7s-9.1-9.7-26.3-9.7-37,16.1-37,37,15,37.5,37,37.5,28.4-11.8,28.4-11.8l-7-9.7c-.5,0-9.1,9.1-21.4,9.1ZM678.1,122.1c-9.1,0-15,5.4-17.7,10.2v-29.5h-12.9v71.8h12.9v-23.6c0-2.7,0-4.8,1.1-6.4,2.1-6.4,7-10.7,13.9-10.7s8,4.3,8,10.7v30.6h12.9v-33.2c-.5-13.4-7-19.8-18.2-19.8ZM793.9,125.9v2.7s-3.8-6.4-15-6.4-23.6,10.7-23.6,26.8,9.1,27.3,23.1,27.3,16.1-8.6,16.1-8.6v7.5h12.3v-71.8h-12.9v22.5h0ZM781.5,165.6c-7.5,0-12.9-6.4-12.9-16.1s5.9-16.1,12.9-16.1,12.9,8,12.9,16.1-6.4,16.1-12.9,16.1ZM829.8,136.1v-12.9h-12.3v51.5h12.9v-20.4c0-3.2.5-5.9,1.1-8.6,2.7-7.5,8.6-10.7,13.9-10.7h3.2v-12.9h-2.1c-8,.5-13.9,6.4-16.6,13.9ZM878.6,122.1c-15.5,0-26.3,11.3-26.3,26.8s10.7,27.3,27.9,27.3,20.9-7.5,20.9-7.5l-4.8-9.1s-6.4,5.9-15,5.9-14.5-4.8-15.5-13.9h35.4s.5-3.2.5-4.8c0-13.4-8-24.7-23.1-24.7h0ZM866.3,143c1.1-6.4,5.9-10.7,12.3-10.7s10.2,3.8,10.2,10.7h-22.5ZM941.9,122.1c-10.2,0-16.1,6.4-18.2,10.7v-9.7h-12.3v51.5h12.9v-23.6c0-2.7,0-4.8,1.1-7,2.1-6.4,7-10.7,13.9-10.7s8,4.3,8,10.7v30.6h12.9v-32.7c-.5-13.4-7-19.8-18.2-19.8ZM1087.7,133.9h-32.7v-30.6h-13.4v71.8h13.4v-30h32.7v30h12.9v-71.8h-12.9v30.6ZM1138.1,122.1c-15.5,0-28.4,11.3-28.4,27.3s12.9,26.8,28.4,26.8,28.4-11.3,28.4-26.8c0-16.1-12.3-27.3-28.4-27.3ZM1138.6,165.6c-8.6,0-15.5-6.4-15.5-16.1s7-16.1,15.5-16.1,15,6.4,15,16.1-7,16.1-15,16.1ZM1186.4,138.2c0-3.2,3.2-4.8,6.4-4.8,8,0,12.9,4.3,12.9,4.3l4.8-9.7s-5.9-5.9-17.2-5.9-19.8,5.4-19.8,15c0,16.6,25.2,15.5,25.2,23.6s-3.2,4.8-7,4.8c-8.6,0-13.9-5.9-13.9-5.9l-5.9,9.1s7,7.5,19.8,7.5,19.8-7,19.8-15.5c0-16.6-25.2-15.5-25.2-22.5h0ZM1249.1,122.1c-12.3,0-16.6,8.6-16.6,8.6v-7.5h-11.8v72.4h12.9v-25.7s4.3,7,15,7,23.6-10.7,23.6-26.8c-.5-16.6-9.1-27.9-23.1-27.9h0ZM1245.9,165.6c-8.6,0-12.9-8-12.9-16.1s6.4-16.1,12.9-16.1,12.9,6.4,12.9,16.1c0,10.2-5.9,16.1-12.9,16.1ZM1322.6,154.8v-19.8h11.8v-10.2h-11.8v-15h-12.3v15h-7v10.2h6.4v21.4c0,17.2,14.5,19.3,21.4,19.3s3.8-.5,3.8-.5v-11.3h-2.1c-3.8.5-10.2-.5-10.2-9.1h0ZM1363.8,122.1c-12.3,0-20.4,6.4-20.4,6.4l4.8,9.1s7-4.8,13.9-4.8,9.7,2.1,9.7,9.1v.5h-1.6c-8.6,0-30.6,1.1-30.6,17.7s8,16.1,17.7,16.1,15.5-9.1,15.5-9.1v8h11.8v-32.2c0-13.4-7.5-20.9-20.9-20.9ZM1372.4,152.7c0,6.4-4.8,13.4-11.8,13.4s-8-3.2-8-6.4c0-7,10.7-8,17.2-8h2.1v1.1h.5ZM984.8,138.2c0-3.2,3.2-4.8,6.4-4.8,8,0,12.9,4.3,12.9,4.3l4.8-9.7s-5.9-5.9-17.2-5.9-19.8,5.4-19.8,15c0,16.6,25.2,15.5,25.2,23.6s-3.2,4.8-7,4.8c-8.6,0-13.9-5.9-13.9-5.9l-5.9,9.1s7,7.5,19.8,7.5,19.8-7,19.8-15.5c0-16.1-25.2-15.5-25.2-22.5h0ZM733.8,103.4h12.9v71.8h-12.9v-71.8ZM1396.6,103.4h12.9v71.8h-12.9v-71.8ZM974.6,110.3s0-.5,0,0h0v-1.1c-.5-3.2-3.2-5.4-6.4-5.4s-6.4,3.2-6.4,6.4,2.7,6.4,5.9,6.4c-1.1,1.1-2.7,1.6-4.8,2.1l1.1,4.3c10.2-3.2,10.7-10.2,10.7-12.9h0ZM265.2,137.7c5.4-3.2,8.6-9.1,8.6-15.5,0-11.8-9.1-18.8-22-18.8h-25.7v71.8h25.7c13.4,0,24.7-6.4,24.7-20.9.5-7-3.2-14.5-11.3-16.6ZM238.9,114.6h12.3c5.9,0,9.1,3.8,9.1,9.1s-3.2,9.1-9.1,9.1h-12.9l.5-18.2h0ZM252.9,164h-13.9v-20.9h13.9c6.4,0,10.2,4.3,10.2,10.2.5,6.4-3.2,10.7-10.2,10.7ZM708.1,123.7h12.9v51.5h-12.9v-51.5ZM714.5,102.8c-3.8,0-7,3.2-7,7s3.2,7,7,7,7-3.2,7-7-3.2-7-7-7ZM1281.3,123.7h12.9v51.5h-12.9v-51.5ZM1287.7,102.8c-3.8,0-7,3.2-7,7s3.2,7,7,7,7-3.2,7-7c.5-3.8-2.7-7-7-7Z"/>
    <g id="s3HzsL">
      <path class="st5" d="M102.7,12.7c2.7.5,5.9,1.1,8.6,1.6,20.4,3.8,37,14.5,50.9,29.5,15.5,17.7,24.7,38.1,29.5,61.1,4.8,25.2,3.8,50.4-4.3,74.5-8,24.1-20.9,44.5-42.4,59.5-15,10.7-31.6,16.1-49.9,15.5s-34.3-7-48.3-18.2c-19.3-15.5-31.6-35.4-39.1-59-3.8-11.3-5.4-22.5-6.4-34.3,0-1.1-.5-2.1-.5-2.7v-12.3c0-1.1.5-1.6.5-2.7.5-5.9,1.1-12.3,2.1-18.2,4.3-24.7,14.5-46.6,31.6-65.4,12.3-13.4,26.8-22.5,44.5-26.8,4.3-1.1,9.1-1.6,13.4-2.1,0,0,9.7,0,9.7,0ZM186.4,136.1c0-18.2-2.7-33.8-8-49.3-8-22.5-20.9-41.3-41.8-54.2-23.1-13.9-46.6-15.5-70.8-3.2-18.8,9.1-32.2,24.1-41.3,42.4-16.1,31.6-18.8,65.4-9.7,99.7,6.4,24.7,19.3,45.6,40.2,60.6,22.5,16.1,46.6,19.3,71.8,8,15.5-6.4,27.9-17.7,37-31.6,15.5-22,22-47.2,22.5-72.4Z"/>
      <path class="st5" d="M14.8,133.4c.5-25.2,6.4-48.8,20.9-70.2,10.2-15,23.1-26.3,40.8-32.2,24.1-8,46.1-2.7,65.4,12.9,18.2,14.5,29,33.8,34.3,56.3,8.6,35.4,5.4,69.2-13.9,100.8-9.1,15-20.9,26.8-37,33.8-24.1,10.7-46.6,8-68.1-7.5-18.2-12.9-29.5-31.1-35.9-52-4.3-13.4-5.9-27.3-6.4-41.8ZM95.2,99.1s0,.5.5.5c-.5.5-1.6.5-2.1,1.6-.5.5-1.6,1.6-1.1,2.1,0,1.6.5,3.2,1.1,4.8.5,1.1,1.1,2.1,2.1,2.7,3.2,1.6,6.4,0,9.7-1.6,1.6-.5,2.7-1.6,4.3-.5.5.5,1.1.5,2.1,0,2.7,0,4.8-.5,7.5-.5s3.8-.5,5.4-.5v.5c-1.1.5-1.6.5-2.7,1.1-3.8.5-8,1.1-11.8,1.6-3.2.5-4.3,1.1-4.3,4.8v3.8q-3.2-3.8-8.6-2.7c-2.1.5-3.8,1.1-5.9,1.6-5.9,1.6-9.1,5.9-8.6,11.8,0,1.1,1.1,2.7,1.6,2.7,4.3,1.6,8.6,1.6,12.9-.5,2.1-1.1,4.8-2.1,7.5-2.7,1.1-.5,2.1-1.1,2.7-1.6,2.7-2.7,5.9-5.4,9.1-8,0,3.8,2.1,3.2,4.3,3.2s2.1-.5,3.2-.5c2.7,0,3.8,1.1,3.8,3.2,0,3.8-.5,7.5-3.2,10.7-3.2,3.2-7,5.9-11.3,7.5-.5,0-1.1,1.1-2.1,2.1-.5,1.1-1.1,2.1-2.1,2.7-3.2,2.1-7,3.8-10.2,5.4-4.3,2.1-7,5.4-8.6,10.2-.5,2.7-.5,5.4,1.6,7,3.8,2.7,7.5,5.4,11.8,7.5,2.1,1.6,3.8.5,4.3-2.1.5-1.6,1.1-3.2,1.1-4.8,1.1-7,4.3-12.3,8-17.7,5.9-8,12.3-16.1,20.4-22,2.7-2.1,4.3-2.7,7-2.1-5.4,2.1-9.1,5.4-12.3,9.7-4.3,5.4-8.6,11.3-12.9,17.2-1.6,2.7-3.2,5.4-4.3,8-1.1,2.7-1.1,5.9-1.1,8.6q.5,0,1.1.5c.5-1.1,1.6-2.1,2.1-3.2,4.3-8,9.1-16.1,13.4-24.1,1.1-1.6,2.1-2.7,3.8-3.8l.5.5c-5.9,8-10.7,17.2-14.5,26.8-1.1,2.7-1.6,5.4-2.1,8-.5,2.1,0,3.2,2.1,3.8.5,0,1.6.5,2.1,1.1,0,1.1.5,2.7-.5,3.2-1.1,1.1-1.6,0-2.1-1.1-.5-.5-1.1-1.6-2.1-2.1-1.1,2.7,2.1,5.9-1.1,8-.5,0-.5-.5-.5-.5-1.6-3.2-2.1-3.2-5.4-1.1-2.1,1.6-4.8,3.2-7.5,4.3-5.4,2.7-11.8,3.8-17.7,4.3-2.1,0-4.3,0-4.3,2.7s.5,6.4,1.1,9.7c.5,1.6,1.6,2.7,3.8,3.2,8.6,1.1,17.2,0,25.7-2.1,11.3-2.7,19.8-8.6,25.2-18.8,3.2-5.9,7-11.8,10.2-17.7,4.3-7,7.5-14.5,8.6-22.5,1.6-12.3,1.1-24.1-11.8-31.1-2.1-2.1-3.8-3.8-7-2.7l-.5-.5c.5-.5,1.6-1.1,2.1-1.1-1.1-3.2-2.1-5.4-2.7-8-.5-1.6-1.1-2.1-3.2-2.1s-1.1-.5-1.6-1.1c-.5-2.1-1.1-4.8-2.1-7-2.1-5.9-3.8-6.4-7.5-1.6-.5.5-1.6,1.1-2.1,1.6,0,0,0-.5-.5-.5,3.2-3.2,2.7-5.4-1.6-6.4-.5,0-.5-.5-1.1-1.1.5-.5,1.6-1.1,2.1-1.1,4.3,0,9.1,1.1,11.8-4.3.5-.5,2.1-1.1,1.1-2.1-.5-1.1-1.1-2.1-2.1-2.7-2.1-1.6-4.8-3.8-7-5.4-3.2-2.1-6.4-4.3-10.2-5.9-2.1-1.1-4.8-.5-5.9-3.8,0-.5-.5-.5-1.1-1.1-1.1-.5-2.1-.5-3.2-1.1,0-1.1,0-2.1-.5-3.2-1.1-1.6-2.7-2.7-3.8-4.3-2.7-3.8-8-3.8-10.2,0-1.6,2.7-3.2,4.8-4.3,7.5-.5,1.1-.5,2.7-.5,3.2,1.1,2.1,8.6,4.3,10.7,2.7,0,0,0-.5.5-.5-.5-.5-1.1-.5-1.6-1.1v-2.1c2.1-.5,4.8-.5,7-.5s1.1,1.6,1.6,2.1h-3.2c-1.1,0-1.6,0-2.7.5,0,0,0,1.6.5,1.6.5.5,1.6.5,2.1.5,1.1,0,2.1-.5,3.2,0l6.4,1.6c1.6.5,3.2.5,4.8,1.6,1.1.5,1.6,2.1,2.7,3.2l-.5.5c-4.3-3.8-9.7-3.8-15-3.2,0-2.7-1.6-2.1-3.2-1.6-2.7,1.1-4.8,1.6-7,2.1-1.1-1.1-2.1-1.6-2.7-2.7-.5,0-.5.5-1.1.5.5,2.1,1.1,4.3,1.6,7,.5,1.6,1.1,1.6,2.1,1.1l4.8-1.6v.5c-.5.5-1.1.5-1.6,1.1-.5.5-1.6,1.1-2.1,2.1,1.1.5,1.6,1.6,2.7,2.1s2.1.5,3.8.5c-2.1,1.6-3.8,3.2-5.9,4.8,0-.5,0-1.1-.5-1.6l-1.6-1.6c-.5.5-1.1,1.1-1.1,1.6-.5,1.6-1.1,3.2-1.1,4.8-.5,1.6,0,2.7,2.1,2.7s2.1,1.1,2.1,1.6c0,1.6,1.1,2.1,2.7,2.1.5-.5,1.6-.5,2.1-.5ZM59.8,152.2c0-1.6,1.1-2.7,2.7-1.6,1.6.5,3.2,1.6,4.8,2.1,1.6.5,3.2,2.1,4.3,2.1,4.8-.5,9.1,1.1,13.4,0,3.8-.5,7.5-2.7,10.7-4.3,2.7-1.1,4.3-2.7,7.5-2.1s5.4-2.7,5.4-5.9c-.5-2.7-1.1-5.4-1.6-8.6-1.1-3.2-2.7-3.8-5.4-2.1-4.3,2.1-8.6,4.8-14.5,4.3v2.7c-1.1-1.1-1.6-1.6-2.7-1.6-3.2-2.1-6.4-4.8-9.7-7-1.1-1.1-2.1-2.1-3.8-3.2-.5-.5-1.1-1.1-1.6-1.1-3.8-.5-7-2.1-9.7-4.8-1.1-1.1-2.7-1.1-3.8.5s-2.7,2.7-4.3,3.8c-2.7,1.6-4.3,3.8-5.4,7-2.1,8.6-4.8,16.6-6.4,25.2-1.1,5.4-1.6,10.7-1.6,16.6s1.1,6.4,1.6,9.1c.5,1.6,2.1,3.2,2.7,5.4,1.6,5.4,8.6,9.7,13.9,8,3.8-1.1,7-1.1,10.7,0,4.3,1.1,8,1.6,12.3,0,1.1-.5,2.1-.5,3.2-1.1,5.9-1.6,11.8-3.2,17.2-5.4,1.1-.5,2.1-1.6,2.1-2.7,0-3.2-4.3-8-7.5-9.1-2.1-.5-4.8-1.1-7-1.6s-3.8-.5-5.4,1.1c-.5.5-1.1,1.6-1.6,1.6-.5.5-1.6.5-2.7.5v-2.7c0-.5.5-1.1,1.1-1.1,3.8-3.2,4.3-5.4,1.1-9.1-1.1-1.1-1.1-2.1-.5-3.8.5-.5.5-1.6.5-2.7-1.1,0-2.1-.5-2.7,0-2.7,1.1-4.8,2.7-7,4.3-1.1.5-2.1,1.1-2.7,1.1-.5-.5-.5-1.1-1.1-1.6,2.1-1.6,3.8-3.2,5.4-4.8-2.7-2.1-7.5-4.8-12.3-7.5ZM81.8,97.5c2.7-3.2,2.1-9.7-4.3-10.7-3.2-.5-6.4-1.1-10.2-1.6-7.5-1.6-15.5,3.8-17.2,10.7-1.1,3.2-2.1,7-3.2,10.2-2.1,5.4,1.1,10.7,6.4,11.8,1.1,0,2.1,0,2.7-.5s0-1.6-.5-2.7c0-1.1-.5-1.6-.5-2.7l.5-.5c1.1,2.7,2.7,5.4,5.4,1.6.5,1.1.5,2.1,1.1,2.7,1.1,1.6,1.6,3.8,2.7,4.8,2.1,1.6,4.3,2.7,7,3.2,4.8,1.6,8,0,10.2-4.8,1.1-2.7,1.1-5.9,1.6-8.6,0-2.1-1.1-4.3-4.3-3.2.5-1.1.5-2.1,1.1-2.7,3.2-2.1,2.7-4.8,1.6-7ZM60.9,222.9l.5.5c4.8,3.8,10.7,6.4,16.6,8,13.4,3.8,26.8,3.8,39.7-1.6,1.6-.5,2.7-1.6,1.6-3.8-1.1-2.7-2.1-5.9-2.7-8.6-1.1-3.8-1.1-4.3-4.8-2.1-.5,0-.5.5-1.1.5-6.4,3.8-13.4,3.2-20.4,2.1-3.2-.5-7.5-.5-10.2.5-4.8,2.1-9.1,2.1-13.4.5-3.2-.5-4.3,0-5.9,3.8ZM124.7,57.3c-7.5-6.4-14.5-12.3-22-18.8-.5,4.3-1.1,8-1.6,11.8,0,.5.5,1.1,1.1,1.6,10.2,8.6,20.9,16.6,32.7,23.1.5.5,1.6.5,1.6.5,3.2-1.6,7-2.7,10.7-4.8-7.5-4.3-14.5-8.6-22-12.9v9.1c-3.2-2.1-6.4-4.3-9.7-7,3.2-.5,5.9-1.6,9.1-2.7ZM62.5,216c3.8-1.1,7.5-1.6,10.7-2.7,3.8-1.1,4.8-2.7,3.8-6.4-.5-1.6-1.6-3.2-2.7-4.3-1.6-1.6-3.8-2.7-5.9-3.2-3.2-.5-6.4-1.6-9.1-1.1-2.7,0-4.8,1.6-7.5,3.2-1.6,1.1-2.7,2.1-1.1,3.8,1.1,1.6,2.1,3.8,3.2,5.4,2.7,2.7,4.3,5.9,8.6,5.4ZM125.8,128.6c0-3.8-1.1-4.8-4.8-3.8-1.6.5-3.2.5-5.4,1.1-1.1,0-2.1,0-3.2.5-2.7,1.6-3.8,4.3-4.3,7.5-.5,2.1,3.2,5.9,4.8,5.9,5.9,0,12.3-5.9,12.9-11.3ZM105.9,39.6c11.3,10.7,23.1,21.4,38.1,27.3-9.7-13.4-23.1-20.9-38.1-27.3ZM133.3,78.7c0-.5.5-.5.5-1.1-.5-.5-1.1-.5-1.6-1.1-10.2-7.5-20.4-14.5-31.1-22-.5-.5-1.6-.5-2.7-.5.5,1.1.5,2.1,1.1,3.2,0,.5.5.5,1.1.5,9.7,7,19.3,13.4,29,20.4.5.5,1.6,1.1,2.7,1.1,0,.5.5,0,1.1-.5ZM127.9,93.2c2.1,3.2,7,3.2,9.1,0,1.6-2.7,1.6-5.4,2.1-8.6.5-1.6,0-3.2-2.1-3.8s-3.2.5-4.3,2.1c-1.6,2.1-2.1,5.4-5.4,6.4-1.1.5-.5,1.6.5,1.6,1.6.5,3.2.5,4.8,1.1v.5c-1.6.5-3.2.5-4.8.5ZM126.9,221.9q.5-.5,0,0c1.1,0,2.1,1.1,2.7,1.6,1.1,1.1,2.1,1.1,3.2,0,.5-.5.5-2.1,0-2.7-2.1-4.3-7-5.9-11.3-4.3-.5,0-1.6,1.6-1.6,2.7.5,2.7,1.6,5.4,2.7,8,0,.5,1.1,1.1,1.1,1.1,1.6-.5,3.2-1.1,4.3-1.6.5-.5-.5-2.1-.5-3.2s-.5-1.6-.5-1.6ZM140.8,216.5c-2.7-3.8-5.9-7.5-11.3-8-.5,0-1.6,0-2.1.5s0,1.6.5,2.1c1.6,2.1,2.7,3.8,4.3,5.9,4.3,4.8,4.8,4.8,8.6-.5Z"/>
      <path class="st5" d="M111.8,80.8c-.5.5-1.1.5-2.1,1.1,1.6,3.8,4.8,4.3,8,5.4-3.2.5-7.5-1.1-9.7-3.8-1.1-1.6-2.7-2.7-4.8-3.2-1.6-.5-3.8-1.6-4.3-4.3,4.3,2.7,8,4.3,12.9,4.8ZM115.1,81.9c3.2.5,6.4.5,9.7,1.1.5,0,1.1.5,1.1.5,0,.5-.5,1.1-1.1,1.1-1.1,0-2.7,0-3.8-.5-1.6,0-3.8-1.1-5.9-2.1ZM63,105c-.5,1.6-.5,3.2-1.1,4.8-1.6-2.7-.5-6.4,2.1-7.5.5,0,1.1-1.1,1.6-1.6.5-1.1,1.1-1.6,1.6-2.7,1.1.5,2.1.5,4.3,1.1-1.6,1.1-2.1,1.1-3.2,2.1-1.1.5-2.1,1.1-2.1,2.1-.5,1.1-1.1,2.7-3.2,1.6ZM51.2,106.6c.5-2.7,1.1-5.9,2.1-8.6,4.3,1.6,4.3,2.1,2.7,6.4-.5-1.1-.5-2.1-1.1-2.7h-.5c-.5,2.1-1.6,3.8-2.1,5.9-.5-1.1-1.1-1.1-1.1-1.1ZM70.6,107.7l1.6-3.2-.5-.5c1.1,0,2.1-.5,2.7,0s1.6,1.6,1.6,2.7-1.1,1.1-2.1,1.6c-1.1-.5-2.1-.5-3.2-.5ZM79.7,92.1c0,1.1,0,2.7-.5,3.2-1.6.5-1.1,4.8-3.8,3.8,1.1-2.7,2.7-4.8,3.8-7h.5ZM79.1,115.2c-.5,2.7-1.6,3.2-3.8,1.6,1.1-.5,2.1-1.1,3.8-1.6Z"/>
    </g>
  </g>
  <g id="Layer_1-2">
    <path class="st7" d="M877.3,741.5v-67.4h-18.5v-18.1h57.7v18.1h-18.5v67.4h-20.7Z"/>
    <path class="st7" d="M988,741.5v-34.8h-25.4v34.8h-20.7v-85.5h20.7v32.4h25.4v-32.4h20.6v85.5h-20.6Z"/>
    <path class="st7" d="M1069.5,698.9c0-26.2,14.7-44.2,38.1-44.2s26,11.9,30.4,22.4l-17.1,7.3c-2.3-6.7-6.9-11.4-13.3-11.4-10.6,0-16.9,10.6-16.9,25.9s6.3,25.9,16.9,25.9,11.4-5.4,13.3-12.3l17.1,7.3c-4,10.5-12.2,23.3-30.4,23.3s-38.1-18.2-38.1-44.2h0Z"/>
    <path class="st7" d="M1204.7,741.5v-34.8h-25.4v34.8h-20.7v-85.5h20.7v32.4h25.4v-32.4h20.6v85.5h-20.6Z"/>
    <path class="st7" d="M1299.8,741.5l-3.2-13.1h-24.6l-3.3,13.1h-22.3l25.4-85.5h25l25.5,85.5h-22.5ZM1284.3,677.6l-8.3,32.8h16.6l-8.2-32.8h0Z"/>
    <path class="st7" d="M1384.2,741.5l-26.3-45.6v45.6h-20.7v-85.5h21l25,43.4v-43.4h20.7v85.5h-19.7,0Z"/>
    <ellipse class="st7" cx="919.6" cy="734" rx="6.9" ry="7.8"/>
    <path class="st7" d="M1022.4,734c0-4.3,3.1-7.8,6.9-7.8s6.9,3.5,6.9,7.8-3.1,7.8-6.9,7.8-6.9-3.5-6.9-7.8Z"/>
    <rect class="st7" x="13" y="659.8" width="145.1" height="44.7"/>
    <path class="st7" d="M158.1,707.7H13c1,51,26.7,95.2,72.5,124.8,45.8-29.5,71.5-73.7,72.5-124.8h0Z"/>
    <path class="st7" d="M4.7,651v53.7l.2,6.6c2.3,52.6,29.5,98,77.1,128.3l3.5,2.3,3.5-2.3c49.1-31.2,76.5-78.5,77.3-133.3v-55.3H4.7ZM161.4,706.8c-.7,52.9-27.3,98.7-75,129.1l-.9.6-.9-.6c-47.7-30.4-74.2-76.1-75-129v-50.4h151.7v50.3h0Z"/>
    <path class="st6" d="M158.1,659.8H13v44.7h145.1v-44.7ZM57,690.8c-.8,0-.9,0-1.5.2-.3.3-.5.2-.5.9-.2,1.1.4,3.1-.2,4-.4.6-2.5.5-3.3.4-2.8,0-5.6,0-9.4,0s-2-.1-2.5.4c-.3.4-.2.4-.6.5-.7.3-2,.3-2.7-.1-.3-.2-.5-.6-1-.8-.3-.1-1,0-1.6,0-3,0-5.1,0-8.7,0s-4.1.4-4.5-.6c-.5-1.2.3-3,0-4-.1-.4-.1-.7-.8-.8-2,.1-2.9,0-3.2-1.5-.5-2.2,1-2.9,3.1-2.6,0,0,.2,0,.2-.1,1-1,.6-3.8.6-6s0-3.4,0-4.9c-2.2,0-4.4,0-3.9-2.7.3-1.5,1.3-1.8,3.3-1.6,1.6-1-.4-4.3,1.2-4.9.5-.2,1.4,0,2.2,0,.3,0,.5,0,.7,0,.5,0,1.2.3,1.8,0,.3,0,.4-.5.9-.5.6,0,1.7.5,2.5.5,2.1.2,4.3-.3,6,.1,1,.3,1.9,1,2.5,1.4,0-.4.7-.5,1.1-.7,1.1-.5,2-.8,3.5-.8,1.6,0,3.1.3,4.9,0,1.1-.2,1.9-.7,2.5.2,1.9.2,4.2-.6,5.1.3.8.8,0,2.5.3,3.9v.4c0,.4.2.3.5.3.8,0,.8,0,1.4,0,1.2.2,2.5,1.3,2,2.9-.5,1.5-1.8,1.4-3.7,1.4-.3.7-.2,1.6-.2,2.4v7.8c.3,1.5,1.6.5,3.1,1.2,1.6,1.2,1.7,3.9-1.1,3.7h0ZM101.3,690.8c-.8,0-.9,0-1.4.2-.3.3-.5.2-.5.9-.2,1.1.4,3.1-.2,4-.4.6-2.5.5-3.3.4-2.8,0-4.9,0-8.6,0s-2-.1-2.5.4c-.3.3-.1.4-.6.5-.7.3-2,.3-2.7-.1-.3-.2-.5-.6-1-.8-.4-.1-1,0-1.6,0-3,0-5.2,0-8.9,0s-4.1.4-4.5-.6c-.5-1.2.3-3,0-4-.1-.4-.1-.7-.8-.8-2,.1-2.9,0-3.2-1.5-.5-2.2.9-2.9,3.1-2.6,0,0,.2,0,.2-.1,1-1,.6-3.8.6-6s0-3.4,0-4.9c-2.2,0-4.4,0-3.9-2.7.3-1.5,1.3-1.8,3.4-1.6,1.5-1-.4-4.3,1.2-4.9.5-.2,1.4,0,2.2,0,.3,0,.5,0,.7,0,.5,0,1.2.3,1.8,0,.3,0,.4-.5.9-.5.6,0,1.7.5,2.5.5,2.1.2,4.5-.3,6.2.1,1,.3,1.9,1,2.5,1.4.1-.4.7-.5,1.1-.7,1.1-.5,2-.8,3.5-.9,1.6,0,2.4.3,4.1,0,1.1-.2,1.9-.7,2.5.2,1.9.2,4.1-.6,5.1.3.8.8,0,2.5.3,3.9v.4c0,.4.2.3.5.3.8,0,.7,0,1.3,0,1.2.2,2.5,1.3,2,2.9-.5,1.5-1.8,1.4-3.7,1.4-.3.7-.2,1.6-.2,2.4v7.8c.3,1.5,1.6.5,3.1,1.2,1.6,1.2,1.7,3.9-1.1,3.7h0ZM151.3,690.9c-.8,0-.9,0-1.5.2-.3.2-.5.2-.5.9-.3,1.1.4,3.1-.2,4-.4.6-2.5.5-3.3.4-2.8,0-8.8,0-12.6,0s-2-.1-2.5.4c-.3.3-.1.4-.6.5-.7.3-2,.3-2.7-.1-.3-.2-.5-.6-1-.8-.4-.1-1,0-1.6,0-3,0-7.1,0-10.7,0s-4.1.4-4.5-.6c-.5-1.2.3-3,0-4-.1-.4-.1-.7-.8-.8-2,.1-2.9,0-3.2-1.5-.5-2.2.9-2.9,3.1-2.6,0,0,.2,0,.2-.1,1-1,.6-3.8.6-6s0-3.4,0-4.9c-2.2,0-4.3,0-3.9-2.7.3-1.5,1.3-1.8,3.3-1.6,1.6-1-.4-4.3,1.2-4.9.5-.2,1.4,0,2.2,0,.3,0,.5,0,.7,0,.5,0,1.2.3,1.8,0,.3,0,.4-.5.8-.5.6,0,1.7.5,2.5.5,2.1.2,6.3-.3,8.1.1,1,.3,1.9,1,2.5,1.4,0-.4.7-.5,1.1-.7,1.1-.5,2-.8,3.5-.9,1.6,0,6.3.3,8.1,0,1.1-.2,1.9-.7,2.5.2,1.9.2,4.1-.6,5.1.3.8.8,0,2.5.3,3.9v.4c0,.4.2.3.5.3.8,0,.8,0,1.4,0,1.2.2,2.5,1.3,2,2.9-.5,1.5-1.8,1.4-3.7,1.4-.3.7-.2,1.6-.2,2.4v7.8c.3,1.5,1.6.5,3.1,1.2,1.6,1.2,1.7,3.9-1.1,3.7h0Z"/>
    <path class="st8" d="M9.7,656.4v50.3c.7,52.9,27.3,98.7,75,129.1l.9.6.9-.6c47.7-30.3,74.2-76.1,75-129.1v-50.3H9.7ZM85.6,832.5c-45.8-29.5-71.5-73.7-72.5-124.7h145c-1,51-26.7,95.2-72.5,124.8h0ZM158.1,704.4H13v-44.7h145.1v44.7ZM19.7,686.6c-2.2-.3-3.6.4-3.1,2.6.3,1.4,1.2,1.6,3.2,1.5.6,0,.7.4.8.8.3,1-.4,2.8,0,4,.4,1,3,.6,4.5.6,3.6,0,5.7,0,8.7,0s1.3-.1,1.6,0c.4.2.6.6,1,.8.8.4,2,.5,2.7.1.5-.2.3-.2.6-.5.5-.5,1.4-.4,2.5-.4,3.8,0,6.5,0,9.4,0,.8,0,2.9.2,3.3-.4.6-.8,0-2.9.2-4,0-.7.2-.6.5-.9.5-.2.6-.1,1.5-.2,2.9.1,2.7-2.5,1.1-3.7-1.5-.8-2.8.3-3.1-1.2v-7.8c0-.8-.1-1.7.2-2.4,2,0,3.2,0,3.7-1.4.5-1.5-.8-2.7-2-2.9-.6,0-.6,0-1.4,0-.3,0-.5,0-.5-.3v-.4c-.3-1.4.5-3.1-.3-3.9s-3.2,0-5.1-.3c-.6-.9-1.4-.4-2.5-.2-1.8.4-3.3,0-4.9,0-1.5,0-2.4.4-3.5.8-.4.2-1,.3-1.1.7-.6-.4-1.5-1.1-2.5-1.4-1.8-.5-4,0-6-.1-.8,0-1.9-.6-2.5-.5-.4,0-.5.5-.9.5-.6.2-1.3,0-1.8,0s-.5,0-.7,0c-.8,0-1.7-.1-2.2,0-1.6.6.4,4-1.2,4.9-2-.2-3,0-3.3,1.6-.5,2.6,1.7,2.6,3.9,2.7,0,1.5,0,3.1,0,4.9s.4,5-.6,6c0,0-.2,0-.2.1h0ZM35.7,692.7s-.2.1-.4.1c-3.5-.4-6.1.2-9.9,0-1-1.1,1-2.3,1.9-2.4,3,.9,4.3,0,7.4.4.7,0,1.2.4,1.8.7.3.7-.5.8-.7,1.1h0ZM51.4,667.8c.7-1.1,2.4-.6,2.9,0,.6,1-.5,3.6.7,4.2.3.1.7,0,1.1,0,.3,0,.6,0,.8,0,.6,0,0-.1,1,.3,1,.7.4,2.1-.7,2.3-.9.1-1.1-.1-1.8,0-1.3.3-1.1,1.7-1.1,3.2s-.3,6.1,0,8.6c.2,1.5,1.8.5,3,.9.4,0,.9.6.9,1,.5,2.9-3.4.7-4,2.4-.4,1.2.3,2.5,0,3.7-.2.7-.6.9-1.5,1-1.7,0-3,0-4.9,0s-1.2,0-2.1,0-2.6,0-4.6,0c-.7-.3-.5-.7-.5-1.2,0-.3,0-.6.5-.7,1.5-.1,3.1.2,4.3.2s1.8,0,3.1-.1c1.4,0,3,.2,3.6-.5.1-4,.1-6.4.1-10.6v-9.5c0-1,.1-2.1,0-3.1-.1-.9-.8-1.3-1-2,0,0-.2-.3,0-.1h0ZM49.8,668.7c0-.3,0-.4.3-.5.4-.2.6.3.9.5.4.4.7.6.8,1.2.2,1.6,0,4,0,5.5v2.6c.2,4,0,12.4,0,13.1s-.2.7-.4.4c-.5-.6-1.4-2-1.5-2.5,0-8.8.1-12.1,0-20.2h-.1ZM50.1,691.5c.3.3.5.5.5.9,0,.8-2,.5-2.9.5-3.2,0-4.4,0-7.8,0-.6-.4-.4-1-.1-1.6.8-1,6.1.2,8.8-.9.7,0,1,.6,1.5,1.1ZM38.2,680c0-2.5,0-4.7,0-7.2,0-.9-.1-2,0-3.1,0-.5.1-1.1.4-1.5.4-.2,1.2-.9,2.1-1,1.8-.3,3.9.2,5.9,0,.4,0,.9-.2,1.2-.2.5,0,1,.5,1.1,1,.1,6.4-.1,14,0,19.2,0,.7.2,2,0,2.3-.3.4-2.2.7-3,.7s-1.7,0-3-.2c-.6,0-1.9,0-2.3,0-.4,0-.5.3-1,.5-.1,0-.8.6-1.1.3-.4-.3-.2-2-.2-2.9v-8.1h0ZM39.5,693.6c0,.3.3.5.3,1-.2.7-.2,1.1-.5,1.5-.2.3-.4.5-.8.5-.4.2-.7.2-1,.1-.5,0-.4-.3-.8-.5-.6-.3-.5-.6-.7-.9-.1-.4,0-.5,0-.8,0-.6,0-1.5,1-1.8,0,0,0,0,0,0,.8-.6,2.3-.3,2.5.8h0ZM26.7,687c.1-5.3,0-11.1,0-17.1s0-1.8.2-2.2c0,0,0-.2,0-.1.3-.4.9-.7,1.4-.7s.9.1,1.3.2h1.5c.9,0,1,.3,1.8.2.4,0,.7-.2,1.1-.2,1.7-.1,2.8.7,3.7,1.8,0,5.5,0,11,0,15.6,0,2.2.3,4.3-.3,6.3-.9.1-1.4-.5-2.4-.7-2.1-.2-4.3.3-6.4-.2-.6-.1-1.5-.3-1.7-.6-.2-.3,0-1.6,0-2.3h0ZM25.2,668.1c.4,0,.6,0,.7.5v15.2c0,2.4.2,5-.5,6.4-.2.4-.8,1.2-1.4,1.3-.3-4.9,0-9.7,0-13.2s-.1-1.2,0-2v-.9c0-.3,0-.7,0-1-.1-.8,0-1.6,0-2.5,0-1.8.3-3.8,1.3-3.8h0ZM21.3,686.4c0-.7,0-1.6,0-2.5v-2.7c0-2.5.2-4.9-.3-6.1-1-.9-2.7.6-3.5-.9-.2-1.7.6-1.8,1.3-2,1.2-.3,2,.5,2.5-.7.3-.8,0-2.2,0-3.3.2-.9.6-.9.9-1,1-.1,1.9-.2,2.2.5-.2.2-.2.5-.4.8-.2.2-.4.4-.6.7-.5,1.2-.2,3.9-.2,5v9.9c0,.5,0,1-.1,1.5v.9c0,.6,0,1,0,1.5,0,.2,0,.5,0,.7.2,1.3-.7,4.4.5,4.9.8.3,2.2,0,3.2,0h6.9c.6,0,.9.3,1,.7.1.4,0,1.1-.6,1.3-4.5-.1-7.9,0-12.5,0-.8-.2-.7-1.2-.7-1.9,0-1.4.7-2.8-.5-3.4-.8-.4-1.1,0-2.2,0-1.2-.4-1-.7-1.2-1.3,0-.6.4-1,.7-1.3.5-.2.5-.2,1.1-.2,1,0,2,.4,2.2-.9h0ZM27.9,674.8h-.1v-.9h4.2v.9h-.3c-.6,0-.9.2-.9.6s0,.5.2.9l1.7,5.7,1.6-6c0-.3.1-.5.1-.6,0-.5-.3-.6-.9-.6h-.1v-.9h3.1v.9h-.1c-.4,0-.7.2-.9.6,0,.3-.3.9-.5,1.4l-2.4,8.7h-.9l-2.8-9.3c-.4-1.3-.5-1.4-1.1-1.4h0ZM117.9,677.1h-.6l.2-3.5h.5c.1.3.2.3.5.3h6c.2,0,.3,0,.4-.3h.5l.2,3.5h-.6c-.3-2-.4-2.1-1.3-2.1h-1.4v7.9c0,1.3.1,1.5,1,1.5h.4v.8h-4.6v-.8h.4c.8,0,1-.2,1-1.5v-7.9h-1.2c-1,0-1.1,0-1.4,2.1h0ZM47,685.3h-7.2v-.9h.5c.7,0,1-.2,1-1.5v-6.6c0-1.3-.2-1.5-1-1.5h-.2v-.9h6.6v2.7c.1,0-.5,0-.5,0h0c-.1-1.5-.3-1.6-1-1.6h-2.3v4h1.6c.8,0,1-.2,1-1.2h.6s0,3.7,0,3.7h-.6v-.2c0-.8-.2-1-1-1h-1.6v2.5c0,1.2,0,1.3.1,1.5,0,0,0,0,.2,0h1.8c1,0,1.2-.3,1.5-1.8h0c0,0,.6,0,.6,0l-.2,3h0ZM139.9,682.8c0-.8-.4-1.5-1.3-2.2l-.7-.5c-.6-.5-1-.9-1.3-1.3-.4-.6-.6-1.4-.6-2.1,0-1.8,1-3,2.5-3s1.1.2,1.7.4c0,0,.1,0,.1,0,0,0,0,0,.2-.1h.4l.3,3h-.6c-.3-1.5-1-2.4-1.9-2.4s-1.1.5-1.1,1.1.3,1.1,1.1,1.7l.3.2c.3.2.5.4.5.4.3.2.5.5.8.7,1,1,1.4,2,1.4,3.2,0,2-1.2,3.4-2.7,3.4s-.9-.1-1.5-.4h-.2s0,0,0-.1h-.2s0,0-.2.2h-.4s-.3-3.4-.3-3.4h.6c.4,1.8,1.1,2.7,2,2.7s1.4-.7,1.4-1.7h-.1ZM108.8,686.6c-2.2-.3-3.6.4-3.1,2.6.3,1.4,1.2,1.6,3.2,1.5.6,0,.7.4.8.8.3,1-.4,2.8,0,4,.4,1,3,.6,4.5.6,3.6,0,7.7,0,10.7,0s1.2-.1,1.6,0c.5.2.6.6,1,.8.7.4,2,.5,2.7.1.5-.2.3-.2.6-.5.5-.5,1.4-.4,2.5-.4,3.8,0,9.8,0,12.6,0,.8,0,2.9.2,3.3-.4.6-.8,0-2.9.2-4,0-.7.2-.6.5-.9.6-.2.6-.1,1.5-.2,2.9.1,2.7-2.5,1.1-3.7-1.5-.8-2.8.3-3.1-1.2v-7.8c0-.8-.1-1.7.2-2.4,1.9,0,3.2,0,3.7-1.4.5-1.5-.8-2.7-2-2.9-.6,0-.5,0-1.4,0-.3,0-.5,0-.5-.3,0-.2,0-.4,0-.4-.3-1.4.5-3.1-.3-3.9-1-1-3.2,0-5.1-.3-.6-.9-1.4-.4-2.5-.2-1.8.4-6.5,0-8.1,0-1.5,0-2.4.4-3.5.9-.4.2-1,.3-1.1.7-.6-.4-1.5-1.1-2.5-1.4-1.7-.5-5.9,0-8.1-.1-.8,0-1.9-.6-2.5-.5-.4,0-.5.5-.8.5-.6.2-1.3,0-1.8,0s-.5,0-.7,0c-.8,0-1.7-.1-2.2,0-1.6.6.4,4-1.2,4.9-2-.2-3.1,0-3.3,1.6-.5,2.6,1.7,2.6,3.9,2.7.1,1.5,0,3.1,0,4.9s.4,5-.6,6c0,0-.2,0-.2.1h0ZM126.8,692.7s-.2.1-.5.1c-3.5-.4-8.1.2-11.9,0-1-1.1,1-2.3,1.9-2.4,3,.9,6.3,0,9.4.4.7,0,1.2.4,1.8.7.3.7-.5.8-.7,1.1h0ZM130.3,696.1c-.2.3-.5.5-.8.5-.4.2-.6.2-1,0-.4,0-.4-.3-.7-.5-.6-.3-.5-.6-.7-.9-.1-.4,0-.5,0-.8,0-.6,0-1.5,1-1.8,0,0,0,0,0,0,.8-.6,2.3-.3,2.5.8,0,.3.3.5.3,1-.1.7-.2,1.1-.5,1.5h0ZM145.7,667.8c.6-1.1,2.4-.6,2.9,0,.6,1-.5,3.6.7,4.2.3.1.7,0,1.1,0,.3,0,.6,0,.8,0,.6,0,0,0,1,.3,1.1.7.4,2.1-.7,2.3-.9.1-1.1-.1-1.8,0-1.4.3-1.1,1.7-1.1,3.2s-.3,6.1,0,8.6c.1,1.5,1.8.5,3,.9.4,0,.8.6.9,1,.5,2.9-3.5.7-4,2.4-.4,1.2.3,2.5,0,3.7-.2.7-.7.9-1.5,1-1.7,0-3.1,0-4.9,0s-1.9,0-2.9,0-5.1,0-7.1,0c-.7-.3-.5-.7-.5-1.2,0-.3,0-.6.5-.7,1.5-.1,4.6.2,5.8.2s3.5,0,4.9-.1c1.4,0,3,.2,3.6-.5.1-4,.1-6.4.1-10.6v-9.5c0-1,.1-2.1,0-3.1-.1-.9-.8-1.3-1-2,0,0-.2-.3,0-.1h0ZM144,668.7c0-.3,0-.4.3-.5.4-.2.7.3.9.5.4.4.7.6.8,1.2.2,1.6,0,4,0,5.5v2.6c.2,4,0,12.4,0,13.1s-.2.7-.4.4c-.5-.6-1.4-2-1.5-2.5,0-8.8.1-12.1,0-20.2h-.1ZM144.4,691.5c.3.3.6.5.5.9,0,.8-2,.5-2.9.5-3.2,0-7.6,0-11,0-.6-.4-.4-1-.1-1.6.8-1,9.3.2,12-.9.7,0,1,.6,1.5,1.1ZM115.8,687c.1-5.3,0-11.1,0-17.1s0-1.8.2-2.2c0,0,0-.2,0-.1.3-.4.9-.7,1.3-.7s.9.1,1.3.2h1.3c.9,0,3.1.3,4,.2.4,0,.7-.2,1.1-.2,1.7-.1,2.9.7,3.7,1.8v2.2h.7v-1.5c0-.5.1-1.1.4-1.5.5-.2,1.2-.9,2.1-1,1.8-.3,7.1.1,9.1,0,.4,0,.9-.2,1.2-.2.6,0,1,.5,1.1,1,.1,6.4-.1,14,0,19.2,0,.7.2,2,0,2.3-.3.4-2.2.7-3,.7-1.2,0-5,0-6.2-.2-.6,0-1.9,0-2.3,0-.4,0-.5.3-1,.5-.1,0-.8.6-1.1.3s-.2-2-.2-2.9h-.7c0,.9,0,1.8-.4,2.7-.8.1-1.4-.5-2.4-.7-2.1-.2-6.3.3-8.4-.2-.6-.1-1.5-.3-1.7-.6-.2-.3,0-1.6,0-2.3h0ZM114.3,668.1c.4,0,.6,0,.7.5v15.2c0,2.4.2,5-.5,6.4-.2.4-.8,1.2-1.4,1.3-.3-4.9,0-9.7,0-13.2s0-1.2,0-2v-.9c0-.3,0-.7,0-1-.1-.8,0-1.6,0-2.5,0-1.8.3-3.8,1.3-3.8h0ZM110.4,686.4c.1-.7,0-1.6,0-2.5v-2.7c0-2.5.2-4.9-.3-6.1-1-.9-2.7.6-3.5-.9-.2-1.7.6-1.8,1.4-2,1.2-.3,2,.5,2.4-.7.3-.8,0-2.2,0-3.3.2-.9.6-.9.9-1,1-.1,1.9-.2,2.2.5-.2.2-.2.5-.4.8-.1.2-.4.4-.5.7-.5,1.2-.2,3.9-.2,5v9.9c0,.5,0,1,0,1.5v.9c0,.6,0,1,0,1.5,0,.2,0,.5,0,.7.2,1.3-.7,4.4.5,4.9.8.3,2.2,0,3.2,0h8.8c.6,0,.9.3,1,.7.1.4,0,1.1-.6,1.3-4.5-.1-9.9,0-14.5,0-.8-.2-.7-1.2-.7-1.9,0-1.4.7-2.8-.5-3.4-.8-.4-1.1,0-2.2,0-1.2-.4-1-.7-1.2-1.3,0-.6.4-1,.7-1.3q.5-.2,1-.2c1,0,2,.4,2.2-.9h0ZM129.1,684.5h-.3c-.9,0-1-.3-1-.6s0-.4,0-.7l.5-2h2.5l.5,2c0,.3.1.6.1.8,0,.5-.2.6-.7.6h-.5v.8h4.1v-.8h0c-.6,0-.9-.5-1.2-1.6l-2.5-9.1h-2s.2.5.2.5l-2.1,8.6c-.3,1.3-.6,1.6-1.1,1.6h-.3v.8h3.4s0-.8,0-.8ZM129.7,676.1l1,3.8h-2l.9-3.8ZM135.9,757.8c-1.5-1.3-3.5-2-4.1-2.7-.7-.8-.8-2.3-1.2-3.5s-1.7-2.9-1.7-2.9c-1.3-1.6-4.1-3.5-4.8-2s-2,3.6-3.6,5c-1.2,1-3.7,2.4-5.3,2.9-1.6.5-20.1.6-21.3.3-1.2-.3-1-1.2-1.1-1.7s-.2-16.2.5-18.3c.6-1.8,2.5-3.5,4-4.7,2.1-1.6,5.4-2,5.4-3.4s-2.9-3.6-4.4-4.4c-2.3-1.2-5.1-1.2-5.9-1.8s-1.9-2.8-3.1-4.4c-1.2-1.6-3.7-3.8-3.8-3.9-.1,0-2.6,2.2-3.8,3.8s-2.3,3.8-3.1,4.4-3.6.6-5.9,1.8c-1.5.7-4.5,3-4.4,4.4,0,1.4,3.4,1.8,5.4,3.5,1.5,1.2,3.4,2.9,4,4.7.7,2.1.5,17.8.5,18.3s0,1.4-1.1,1.7c-1.2.3-19.7.1-21.3-.3-1.6-.5-4.1-1.8-5.3-2.9-1.6-1.4-2.9-3.5-3.6-5s-3.5.5-4.8,2c0,0-1.3,1.7-1.7,3-.4,1.2-.5,2.6-1.2,3.4-.6.7-2.6,1.4-4.1,2.7-1.9,1.6-3.5,3.4-4.1,4.9-.3.8,3,3.1,3.8,3.8,1.4,1,4.4,2.3,4.7,2.5.3.3,1,3.6,1.7,5,.8,1.4,3.3,4.2,4.8,4.6,1.5.5,2.3.7,2.6,0,.4-.6,1.7-3.2,2.5-4.6,1-1.7,3.5-3.9,4.8-4.5,1.5-.7,4-1.1,6.5-1.1,3.5-.1,13.1-.2,13.9,0,.6,0,2.2.4,2.2,2s0,22.8,0,24.3c-.1,1.7-.4,4.1-2.9,7.2-1.2,1.5-4.2,3.7-7.5,4.6-1.2.4-.2,1.4.5,2.4.7,1,2.7,2.5,3.7,3.2,1.2.8,4.5,1.8,5.5,1.9,1.3.2,2.1,2.4,2.7,3.7,1.2,2.7,3.8,5,5,6,1.2-1,3.8-3.3,5-6,.6-1.4,1.4-3.5,2.7-3.7.9-.2,4.3-1.1,5.5-1.9,1-.6,3-2.2,3.8-3.2.7-1,1.7-2,.5-2.4-3.3-1-6.3-3.1-7.5-4.6-2.5-3.1-2.7-5.5-2.8-7.2,0-1.5,0-22.8,0-24.3s1.6-1.9,2.2-2c.9-.1,10.4,0,13.9,0,2.5,0,5,.4,6.5,1.1,1.3.6,3.8,2.8,4.8,4.5.8,1.4,2.1,4,2.5,4.6.4.6,1.2.4,2.6,0,1.5-.5,4-3.3,4.7-4.7.8-1.4,1.5-4.7,1.8-5,.3-.3,3.3-1.6,4.7-2.6.8-.6,4.1-3,3.8-3.8-.7-1.5-2.2-3.3-4.1-4.9h0ZM45,752.7c.4-.6,1.2-1.6,1.4-1.7.1,0,.3,0,.3,0,0,0,.2,0,.3,0s1,1.1,1.4,1.7c.3.5.6,1.6.6,2.8s-.5,2.9-.6,3.5c-.3,1.1-.5,1.6-.7,2.3-.3,1.1-.4,1.8-.5,2.1,0,.4,0,1-.1,1.1,0,.1-.3.3-.4.3,0,0-.3-.2-.4-.3,0-.2,0-.8-.1-1.1,0-.3-.1-1-.5-2.1-.2-.7-.4-1.2-.7-2.3-.2-.7-.6-2.4-.6-3.5s.4-2.2.6-2.8ZM49,765.8c.3,0,.8.2.8.6s-.4.7-.8.7h-4.6c-.4,0-.8-.3-.8-.7s.5-.6.8-.6h2.3s2,0,2.3,0ZM41.1,761.3c-.4,0-.8,0-1.2.1-.5.2-.6.4-.9.8-.2.3-.4,1.1-.4,1.1,0,0-.6-.4-1.1-.9-.2-.3-.5-1-.5-1.4s.1-1.3.7-1.9c.5-.6,1.6-1.1,2.8-1.2.7,0,1.5.2,2,.5.7.4,1.6,1.4,2,2.2.2.4.5,1.3.7,2s.3,1.5.2,2c0,.3-.5.4-.7.1,0,0,0-.1-.2-.3-.1-.4-.2-.5-.5-.9-.3-.5-.8-1.1-1.3-1.5-.7-.5-1.3-.7-1.6-.7h-.1ZM49.5,770.5c-.7,0-1.4-.2-1.7-.5,0,.4,0,.8-.1,1.1,0,.5-.4,1-.5,1.1,0,0-.4.2-.4.2,0,0-.3,0-.4-.2-.2-.1-.5-.5-.5-1.1,0-.4-.1-.8-.1-1.1-.4.4-1,.5-1.7.5s-1.5-.5-1.1-.5c.3,0,1.2-.5,1.6-1,.4-.4.6-.9.6-.9h3.4s.2.5.6.9c.4.4,1.3.9,1.6,1,.3,0-.4.5-1.1.5h0ZM56.4,761.1c0,.5-.2,1.1-.5,1.4-.5.6-1.1.9-1.1.9,0,0-.2-.9-.4-1.1-.3-.4-.5-.6-.9-.8-.5-.2-.7-.1-1.2-.1s-1,.1-1.6.7c-.5.4-1,1-1.3,1.5-.3.5-.4.5-.5.9,0,.2-.2.3-.2.3-.2.2-.6.1-.7-.1-.1-.5,0-1.3.2-2s.6-1.7.8-2c.4-.8,1.3-1.8,2-2.2.5-.3,1.3-.5,2-.5,1.2,0,2.3.7,2.8,1.2.5.6.7,1.3.7,1.9h0ZM89.5,724c.5-.3,1.4-.5,2-.5,1.2,0,2.3.6,2.8,1.2.5.6.7,1.3.7,1.9,0,.5-.2,1.1-.5,1.4-.5.6-1.1.9-1.1.9,0,0-.2-.9-.4-1.1-.3-.4-.5-.6-.9-.8s-.8-.2-1.2-.2-1,.1-1.7.7c-.5.4-1,1-1.3,1.5-.3.5-.4.6-.5.9,0,.2-.2.3-.2.3-.2.2-.6.2-.7-.1-.1-.5,0-1.3.2-2s.5-1.7.7-2c.4-.8,1.3-1.8,2-2.2h0ZM86,808.6c0,.4,0,1-.1,1.1,0,.1-.3.3-.4.3,0,0-.3-.1-.4-.3,0-.2,0-.8-.1-1.1,0-.3-.1-1-.4-2.1-.2-.7-.4-1.2-.8-2.3-.2-.6-.6-2.4-.6-3.5s.4-2.2.6-2.8c.4-.6,1.2-1.6,1.4-1.7.1,0,.3-.1.3-.1,0,0,.2,0,.3.1.1,0,1,1,1.4,1.7.3.5.6,1.6.6,2.8s-.5,2.9-.6,3.5c-.3,1.1-.5,1.6-.7,2.3-.3,1.1-.4,1.8-.5,2.1ZM87.8,811c.3,0,.8.2.8.7s-.4.7-.8.7h-4.7c-.4,0-.8-.3-.8-.7s.5-.6.8-.7h4.7ZM86.6,770c0,.4,0,.8-.1,1.1-.1.5-.4,1-.5,1.1,0,0-.4.2-.4.2,0,0-.3,0-.4-.2-.2-.1-.5-.5-.5-1.1,0-.4-.1-.8-.1-1.1-.4.4-1,.5-1.7.5-.7,0-1.5-.5-1.1-.5.3,0,1.2-.5,1.6-1,.4-.4.6-.9.6-.9h3.4s.3.5.6.9c.4.4,1.3.9,1.6,1,.4,0-.4.5-1.1.5-.7,0-1.3-.2-1.7-.5h0ZM87.9,767.2h-4.7c-.4,0-.8-.3-.8-.7s.5-.6.8-.6h4.7c.3,0,.7.2.7.6s-.4.7-.7.7ZM86.1,763.4c0,.4,0,1-.1,1.1,0,.1-.3.3-.4.3,0,0-.3-.2-.4-.3,0-.2,0-.8-.1-1.1,0-.3-.1-1-.5-2.1-.2-.7-.4-1.2-.7-2.3-.2-.7-.6-2.4-.6-3.5s.4-2.2.6-2.8c.4-.6,1.2-1.6,1.4-1.7.1,0,.3,0,.3,0,0,0,.2,0,.3,0,0,0,1,1.1,1.4,1.7.3.6.6,1.6.6,2.8s-.4,2.9-.6,3.5c-.4,1.1-.6,1.6-.7,2.3-.3,1.1-.4,1.8-.5,2.1ZM86.4,735.6c0,.4,0,.8-.1,1.2,0,.5-.4.9-.5,1.1,0,0-.3.2-.3.2,0,0-.3,0-.3-.2-.2-.2-.5-.5-.5-1.1,0-.4-.1-.8-.2-1.2-.4.4-1,.6-1.7.5-.7,0-1.5-.5-1.1-.6.3,0,1.2-.5,1.6-1,.4-.4.6-.9.6-.9h3.4s.2.5.6.9c.4.4,1.3.9,1.6,1,.3,0-.4.5-1.1.6-.7,0-1.3-.2-1.7-.5h0ZM82.3,732.1c0-.4.5-.6.8-.6h4.6c.3,0,.8.2.8.6s-.4.7-.8.7h-4.6c-.4,0-.8-.3-.8-.7ZM83.6,718.4c.4-.6,1.3-1.6,1.4-1.7,0,0,.3,0,.3,0,0,0,.2,0,.3,0,.1,0,1,1.1,1.4,1.7.3.5.6,1.6.6,2.8s-.4,2.9-.6,3.5c-.3,1.1-.6,1.6-.7,2.3-.3,1.1-.4,1.8-.5,2.1,0,.4,0,1-.1,1.1,0,.1-.3.3-.4.4,0,0-.3-.2-.4-.4,0-.2,0-.8,0-1.1,0-.3-.1-1-.5-2.1-.2-.6-.4-1.2-.7-2.3-.2-.6-.6-2.4-.6-3.5s.3-2.2.6-2.8h0ZM77.6,727.9c-.2.3-.4,1.1-.4,1.1,0,0-.6-.3-1.1-.9-.3-.3-.5-1-.5-1.4,0-.6.1-1.3.7-1.9.5-.5,1.6-1.1,2.8-1.2.7,0,1.5.1,2,.5.7.4,1.6,1.4,2,2.2.2.4.5,1.3.7,2,.1.7.3,1.5.1,2,0,.3-.5.4-.6.1,0,0,0-.1-.2-.3-.1-.4-.2-.5-.5-.9-.3-.5-.8-1.1-1.3-1.5-.7-.5-1.4-.7-1.7-.7-.5,0-.7,0-1.2.2s-.6.4-.9.8h0ZM77.9,762.2c-.2.3-.4,1.1-.4,1.1,0,0-.6-.4-1.1-.9-.2-.3-.5-1-.5-1.4,0-.6.1-1.3.7-1.9.5-.6,1.6-1.1,2.8-1.2.7,0,1.5.2,2,.5.7.4,1.5,1.4,2,2.2.2.4.6,1.3.8,2s.3,1.5.2,2c0,.3-.5.4-.7.1,0,0,0-.1-.2-.3-.1-.4-.2-.5-.5-.9-.3-.5-.8-1.1-1.3-1.5-.7-.5-1.3-.7-1.7-.7s-.7,0-1.2.1c-.5.2-.6.4-.9.8h0ZM79.9,806.6c-.5,0-.7,0-1.2.1-.5.2-.6.4-.9.8-.2.3-.4,1.1-.4,1.1,0,0-.6-.3-1.1-.9-.3-.3-.5-1-.5-1.4,0-.6.2-1.3.7-1.9.5-.6,1.6-1.1,2.8-1.2.7,0,1.5.2,2,.5.7.4,1.6,1.4,2,2.2.2.4.5,1.3.7,2,.2.7.3,1.5.2,2,0,.3-.5.4-.7.1,0,0,0-.1-.2-.3-.1-.4-.2-.5-.5-.9-.3-.5-.8-1.1-1.3-1.5-.7-.5-1.4-.7-1.6-.7h0ZM88.3,815.7c-.7,0-1.4-.2-1.7-.5,0,.4,0,.8-.1,1.1,0,.5-.4.9-.5,1.1s-.4.2-.4.2c0,0-.3,0-.4-.2-.2-.2-.5-.5-.5-1.1,0-.4-.1-.8-.1-1.2-.4.4-1,.6-1.7.5-.7,0-1.5-.5-1.1-.5.3,0,1.2-.5,1.6-1,.4-.4.6-.9.6-.9h3.4s.2.5.6.9c.4.4,1.3.9,1.6,1,.3,0-.4.5-1.1.5h0ZM94.4,804.4c.5.6.7,1.3.7,1.9,0,.5-.3,1.1-.5,1.4-.5.6-1.1.9-1.1.9,0,0-.2-.9-.4-1.1-.3-.4-.5-.6-.9-.8-.5-.2-.8-.1-1.2-.1s-1,.1-1.7.7c-.5.4-1,1-1.3,1.5-.3.5-.4.5-.5.9,0,.2-.2.3-.2.3-.2.2-.6.2-.7-.1-.1-.5,0-1.3.1-2,.2-.8.5-1.6.7-2,.4-.8,1.3-1.8,2-2.2.5-.3,1.4-.5,2-.5,1.2,0,2.3.7,2.8,1.2h0ZM95.2,761.1c0,.5-.2,1.1-.5,1.4-.5.6-1.1.9-1.1.9,0,0-.2-.9-.4-1.1-.3-.4-.5-.6-.9-.8s-.8-.1-1.2-.1-1,.1-1.6.7c-.5.4-1,1-1.3,1.5-.3.5-.4.5-.5.9,0,.2-.2.3-.2.3-.2.2-.6.1-.7-.1-.1-.5,0-1.3.2-2s.5-1.7.7-2c.4-.8,1.3-1.8,2-2.2.5-.3,1.3-.5,2-.5,1.2,0,2.3.7,2.8,1.2.5.6.7,1.3.7,1.9h0ZM122.4,752.7c.4-.6,1.2-1.6,1.4-1.7.1,0,.3,0,.3,0,0,0,.2,0,.3,0,.1,0,1,1.1,1.4,1.7.3.6.7,1.6.7,2.8s-.5,2.9-.7,3.5c-.3,1.1-.5,1.6-.7,2.3-.3,1.1-.4,1.8-.5,2.1,0,.4,0,1-.1,1.1,0,.1-.3.3-.4.3,0,0-.3-.2-.4-.3,0-.2,0-.8-.1-1.1,0-.3-.1-1-.5-2.1-.2-.7-.4-1.2-.7-2.3-.2-.7-.6-2.4-.6-3.5s.4-2.2.6-2.8ZM126.4,765.8c.4,0,.8.2.8.6s-.4.7-.8.7h-4.6c-.4,0-.8-.3-.8-.7s.5-.6.8-.6h2.3s2,0,2.3,0ZM118.5,761.3c-.5,0-.8,0-1.2.1-.4.2-.6.4-.9.8-.2.3-.4,1.1-.4,1.1,0,0-.6-.4-1.1-.9-.2-.3-.5-1-.5-1.4s.1-1.3.7-1.9c.5-.6,1.6-1.1,2.8-1.2.7,0,1.5.2,2,.5.7.4,1.6,1.4,2,2.2.2.4.5,1.3.7,2,.2.7.3,1.5.2,2,0,.3-.5.4-.7.1,0,0,0-.1-.2-.3-.1-.4-.2-.5-.5-.9-.3-.5-.8-1.1-1.3-1.5-.7-.5-1.4-.7-1.6-.7h0ZM126.8,770.5c-.7,0-1.3-.2-1.7-.5,0,.4,0,.8-.1,1.1,0,.5-.4,1-.5,1.1,0,0-.4.2-.4.2,0,0-.3,0-.4-.2-.2-.1-.4-.5-.5-1.1s-.1-.8-.1-1.1c-.4.4-1,.5-1.7.5-.7,0-1.5-.5-1.1-.5.3,0,1.2-.5,1.6-1,.4-.4.6-.9.6-.9h3.4s.3.5.6.9c.4.4,1.3.9,1.6,1s-.4.5-1.1.5ZM133.2,762.5c-.5.6-1.1.9-1.1.9,0,0-.2-.9-.4-1.1-.3-.4-.5-.6-.9-.8-.5-.2-.8-.1-1.2-.1s-1,.1-1.7.7c-.5.4-1,1-1.3,1.5-.3.5-.4.5-.5.9,0,.2-.2.3-.2.3-.2.2-.6.1-.7-.1-.1-.5,0-1.3.2-2s.5-1.7.7-2c.4-.8,1.3-1.8,2-2.2.5-.3,1.3-.5,2-.5,1.2,0,2.3.7,2.8,1.2.5.6.7,1.3.7,1.9s-.3,1.1-.5,1.4h0ZM64.6,686.6c-2.2-.3-3.6.4-3.1,2.6.3,1.4,1.2,1.6,3.2,1.5.6,0,.6.4.8.8.3,1-.4,2.8,0,4,.4,1,2.9.6,4.5.6,3.6,0,5.9,0,8.9,0s1.2-.1,1.6,0c.5.2.7.6,1,.8.8.4,2,.5,2.7.1.5-.2.3-.2.6-.5.5-.5,1.4-.4,2.5-.4,3.8,0,5.8,0,8.6,0,.8,0,2.9.2,3.3-.4.6-.8,0-2.9.2-4,0-.7.2-.6.5-.9.5-.2.6-.1,1.4-.2,2.9.1,2.7-2.5,1.1-3.7-1.5-.8-2.8.3-3.1-1.2v-7.8c0-.8-.1-1.7.2-2.4,2,0,3.2,0,3.7-1.4.5-1.5-.8-2.7-2-2.9-.6,0-.6,0-1.3,0-.3,0-.5,0-.5-.3v-.4c-.3-1.4.5-3.1-.3-3.9-1-1-3.2,0-5.1-.3-.6-.9-1.4-.4-2.5-.2-1.8.4-2.5,0-4.1,0-1.5,0-2.4.4-3.5.9-.4.2-1,.3-1.1.7-.6-.4-1.5-1.1-2.5-1.4-1.7-.5-4,0-6.2-.1-.8,0-1.9-.6-2.5-.5-.5,0-.5.5-.9.5-.6.2-1.3,0-1.8,0s-.5,0-.7,0c-.8,0-1.7-.1-2.2,0-1.6.6.4,4-1.2,4.9-2-.2-3.1,0-3.4,1.6-.5,2.6,1.7,2.6,3.9,2.7,0,1.5,0,3.1,0,4.9s.4,5-.6,6c0,0-.2,0-.2.1h0ZM80.7,692.7s-.2.1-.4.1c-3.5-.4-6.2.2-10.1,0-1-1.1,1-2.3,1.9-2.4,3,.9,4.5,0,7.5.4.7,0,1.2.4,1.8.7.3.7-.5.8-.7,1.1ZM95.6,667.8c.6-1.1,2.4-.6,2.9,0,.6,1-.5,3.6.7,4.2.3.1.8,0,1.2,0,.3,0,.6,0,.8,0,.6,0,0-.1,1,.3,1.1.7.4,2.1-.7,2.3-.9.1-1.1-.1-1.8,0-1.3.3-1.1,1.7-1.1,3.2s-.3,6.1,0,8.6c.1,1.5,1.8.5,3,.9.4,0,.9.6.9,1,.5,2.9-3.4.7-4,2.4-.4,1.2.3,2.5,0,3.7-.2.7-.7.9-1.5,1-1.8,0-3.1,0-4.9,0s-1.2,0-2.1,0-1.9,0-3.9,0c-.7-.3-.5-.7-.5-1.2,0-.3,0-.6.5-.7,1.5-.1,2.5.2,3.6.2s1.8,0,3.1-.1c1.4,0,3,.2,3.6-.5.1-4,.1-6.4.1-10.6v-9.5c0-1,.1-2.1,0-3.1-.1-.9-.8-1.3-1-2,0,0-.2-.3,0-.1h0ZM94,668.7c0-.3,0-.4.3-.5.4-.2.6.3.9.5.3.4.7.6.8,1.2.2,1.6,0,4,0,5.5,0,.5,0,1,0,1.4v1.2c.2,4,0,12.4,0,13.1s-.2.7-.4.4c-.5-.6-1.4-2-1.5-2.5,0-8.8.1-12.1,0-20.2h0ZM94.4,691.5c.2.3.6.5.5.9,0,.8-2,.5-2.9.5-3.2,0-3.6,0-7,0-.6-.4-.4-1-.1-1.6.8-1,5.4.2,8.1-.9.7,0,1,.6,1.5,1.1ZM83.1,680c0-2.5,0-4.7,0-7.2,0-.9-.1-2,0-3.1,0-.5.1-1.1.4-1.5.5-.2,1.2-.9,2.1-1,1.9-.3,3.2.1,5.2,0,.4,0,.9-.2,1.2-.2.5,0,1,.5,1.1,1,.1,6.4-.1,14,0,19.2,0,.7.2,2,0,2.3-.3.4-2.2.7-3,.7s-1,0-2.3-.2c-.6,0-1.8,0-2.3,0-.4,0-.5.3-1,.5-.1,0-.8.6-1.1.3-.3-.3-.2-2-.2-2.9,0-2.8,0-6.5,0-8.1ZM84.4,693.6c0,.3.3.5.3,1-.1.7-.2,1.1-.5,1.5-.2.3-.5.5-.8.5-.4.2-.7.2-1,.1-.4,0-.4-.3-.8-.5-.6-.3-.5-.6-.7-.9-.1-.4,0-.5,0-.8,0-.6,0-1.5,1-1.8,0,0,0,0,0,0,.8-.6,2.3-.3,2.5.8h0ZM71.5,687c.1-5.3,0-11.1,0-17.1s0-1.8.2-2.2c0,0,0-.2,0-.1.3-.4.9-.6,1.3-.6s.9.1,1.3.2h.5c.9,0,2,.3,2.8.2.4,0,.7-.2,1.1-.2,1.6-.1,2.8.7,3.7,1.8,0,5.5,0,11,0,15.6h0c0,.1-.2,0-.4,0-.2,0-.4-.2-.5-.5-.3-.4-.7-1.1-1-1.7l-.4-.7c-.4-.8-.6-1.2-1-1.6,1.1-.5,1.7-1.5,1.7-3s-.5-2.5-1.5-2.9c-.6-.4-1.3-.5-2.5-.5s-2,0-3.2.3h-.3v.9h.2c.7,0,1,.2,1,1.5v6.6c0,1.3-.2,1.5-1,1.5h-.3v.8h4.2v-.8h-.3c-.7,0-1-.2-1-1.5v-2.4h.8c.4.5.5.9,1,1.7l.4.9c.5,1.1.9,1.6,1.3,1.9.5.3,1,.5,2,.5h.5c0,1.8.2,3.5-.3,5.3-.9.1-1.4-.5-2.4-.7-2.1-.2-4.4.3-6.5-.2-.6-.1-1.5-.3-1.7-.6-.2-.3,0-1.6,0-2.3h0ZM79,677.1c0,1.8-.7,2.6-2.4,2.6h-.2v-5.1h.4c1.5,0,2.1.8,2.1,2.5h0ZM70.1,668.1c.4,0,.6,0,.7.5v15.2c0,2.4.2,5-.5,6.4-.2.4-.8,1.2-1.4,1.3-.3-4.9,0-9.7,0-13.2s0-1.2,0-2c0-.2,0-.7,0-.9,0-.3,0-.7,0-1,0-.8,0-1.6,0-2.5,0-1.8.3-3.8,1.3-3.8h0ZM66.1,686.4c0-.7,0-1.6,0-2.5v-2.7c0-2.5.2-4.9-.3-6.1-1-.9-2.7.6-3.5-.9-.2-1.7.6-1.8,1.4-2,1.2-.3,2,.5,2.4-.7.3-.8,0-2.2,0-3.3.2-.9.6-.9.9-1,1-.1,1.9-.2,2.2.5-.2.2-.2.5-.4.8-.1.2-.4.4-.5.7-.5,1.2-.2,3.9-.2,5v9.9c0,.5,0,1-.1,1.5v.9c0,.6,0,1,0,1.5,0,.2,0,.5,0,.7.2,1.3-.7,4.4.5,4.9.8.3,2.2,0,3.2,0h7c.6,0,.9.3,1,.7.1.4,0,1.1-.6,1.3-4.5-.1-8,0-12.6,0-.8-.2-.7-1.2-.7-1.9,0-1.4.7-2.8-.5-3.4-.8-.4-1.1,0-2.2,0-1.2-.4-1-.7-1.2-1.3,0-.6.4-1,.7-1.3.3-.1.7-.2,1-.2,1,0,2,.4,2.2-.9h0ZM90.3,685.3h-3.9v-.8h.1c.7,0,.9-.2.9-1.5v-6.6c0-1.3-.2-1.5-.9-1.5h-.1v-.9h3.9v.9h-.1c-.7,0-1,.2-1,1.5v6.6c0,1.3.2,1.5,1,1.5h.1v.8Z"/>
    <path class="st7" d="M308.6,741.7v-34.9h-25.4v34.9h-20.8v-85.6h20.8v32.5h25.4v-32.5h20.7v85.6h-20.7Z"/>
    <path class="st7" d="M397.3,741.7l-3.2-13.1h-24.7l-3.3,13.1h-22.3l25.4-85.6h25l25.6,85.6h-22.5ZM381.7,677.6l-8.3,32.9h16.6l-8.2-32.9Z"/>
    <path class="st7" d="M471.6,741.7l-11.6-29.4h-7.8v29.4h-20.8v-85.6h34.9c16.8,0,27.7,12,27.7,27.7s-7.7,22-14.1,24.8l14.6,33.1h-23.1ZM472.9,684.2c0-6.3-4-10-9.6-10h-11.1v20h11.1c5.6,0,9.6-3.7,9.6-10Z"/>
    <path class="st7" d="M527.7,741.7l-25.4-85.6h22.3l15.7,61.3,15.6-61.3h22.5l-25.6,85.6h-25.1Z"/>
    <path class="st7" d="M628.3,741.7l-3.2-13.1h-24.7l-3.3,13.1h-22.3l25.4-85.6h25l25.6,85.6h-22.5,0ZM612.7,677.6l-8.3,32.9h16.6l-8.2-32.9Z"/>
    <path class="st7" d="M702.6,741.7l-11.6-29.4h-7.8v29.4h-20.8v-85.6h34.9c16.8,0,27.7,12,27.7,27.7s-7.7,22-14.1,24.8l14.6,33.1h-23.1ZM703.9,684.2c0-6.3-4-10-9.6-10h-11.1v20h11.1c5.6,0,9.6-3.7,9.6-10Z"/>
    <path class="st7" d="M742,741.7v-85.6h30.1c24.8,0,39,17.6,39,42.9s-14.1,42.8-38.9,42.8h-30.2ZM789.9,699c0-15.9-6.1-24.8-17.7-24.8h-9.4v49.4h9.4c11.2,0,17.7-9.6,17.7-24.7Z"/>
    <path class="st7" d="M256.7,830l4.6-7.5c2.6,3,6.9,5.1,11.6,5.1s6.6-2.4,6.6-5.3c0-8.5-21.4-5.5-21.4-21.6s5.9-14,15.7-14,10.9,2,14.6,5.3l-4.5,7.3c-2.9-2.8-6.6-4.1-10.2-4.1s-5.7,2-5.7,4.9c0,7.5,21.3,5.4,21.3,21.4s-5.6,14.6-16.2,14.6-12.6-2.4-16.3-6.2h0Z"/>
    <path class="st7" d="M294.8,811.5c0-14.6,7.8-24.7,20.3-24.7s13.6,6,16,11.5l-8,3.5c-1.5-3.8-4.2-6.5-8-6.5-6.6,0-10.6,6.7-10.6,16.2s4,16.2,10.6,16.2,6.7-3,8.1-7l8,3.5c-2.4,5.6-6.8,12.1-16.1,12.1s-20.3-10.2-20.3-24.7h0Z"/>
    <path class="st7" d="M364.9,835.4v-20.3h-16.1v20.3h-9.6v-47.8h9.6v19h16.1v-19h9.6v47.8s-9.6,0-9.6,0Z"/>
    <path class="st7" d="M383.6,811.5c0-14.2,7.5-24.7,20.1-24.7s20.1,10.5,20.1,24.7-7.5,24.7-20.1,24.7-20.1-10.5-20.1-24.7ZM413.8,811.5c0-9.2-3.6-16.2-10.2-16.2s-10.2,7-10.2,16.2,3.6,16.2,10.2,16.2,10.2-7,10.2-16.2Z"/>
    <path class="st7" d="M432.3,811.5c0-14.2,7.5-24.7,20.1-24.7s20.1,10.5,20.1,24.7-7.5,24.7-20.1,24.7-20.1-10.5-20.1-24.7ZM462.5,811.5c0-9.2-3.6-16.2-10.2-16.2s-10.2,7-10.2,16.2,3.6,16.2,10.2,16.2,10.2-7,10.2-16.2Z"/>
    <path class="st7" d="M482.6,835.4v-47.8h9.6v39.3h16.1v8.5h-25.7Z"/>
    <path class="st7" d="M535.4,811.5c0-14.2,7.5-24.7,20.1-24.7s20.1,10.5,20.1,24.7-7.5,24.7-20.1,24.7-20.1-10.5-20.1-24.7ZM565.6,811.5c0-9.2-3.6-16.2-10.2-16.2s-10.2,7-10.2,16.2,3.6,16.2,10.2,16.2,10.2-7,10.2-16.2Z"/>
    <path class="st7" d="M585.9,835.4v-47.8h27.4v8.5h-17.8v10.8h17.3v8.4h-17.3v20.1h-9.6Z"/>
    <path class="st7" d="M642.7,835.4v-47.8h17.6c9.9,0,14.9,7.1,14.9,15.2s-5,15.2-14.9,15.2h-8v17.3h-9.6ZM665.4,802.8c0-4.1-2.5-6.8-6.2-6.8h-6.9v13.6h6.9c3.7,0,6.2-2.7,6.2-6.8h0Z"/>
    <path class="st7" d="M685,818.8v-31.2h9.7v31.3c0,5.7,2.9,8.9,8,8.9s8-3.1,8-8.9v-31.3h9.7v31.2c0,11.1-6.9,17.4-17.7,17.4s-17.6-6.3-17.6-17.4h0Z"/>
    <path class="st7" d="M731.3,835.4v-47.8h19.8c8.6,0,12.7,5.6,12.7,12.2s-3.4,9.9-7.7,11c4.9.8,8.5,5.8,8.5,11.7s-4.1,13-12.8,13h-20.5,0ZM754,801.4c0-3.1-1.7-5.4-5.1-5.4h-8v10.8h8c3.5,0,5.1-2.1,5.1-5.5ZM754.8,821.1c0-3.3-2-5.9-5.6-5.9h-8.3v11.7h8.3c3.6,0,5.6-2.1,5.6-5.8Z"/>
    <path class="st7" d="M775,835.4v-47.8h9.6v39.3h16.1v8.5h-25.7Z"/>
    <path class="st7" d="M810.8,835.4v-47.8h9.6v47.8h-9.6Z"/>
    <path class="st7" d="M830.9,811.5c0-14.6,7.8-24.7,20.3-24.7s13.6,6,16,11.5l-8,3.5c-1.5-3.8-4.2-6.5-8-6.5-6.6,0-10.6,6.7-10.6,16.2s4,16.2,10.6,16.2,6.7-3,8.1-7l8,3.5c-2.4,5.6-6.8,12.1-16.1,12.1s-20.3-10.2-20.3-24.7h0Z"/>
    <path class="st7" d="M921.7,835.4v-20.3h-16.1v20.3h-9.6v-47.8h9.6v19h16.1v-19h9.6v47.8s-9.6,0-9.6,0Z"/>
    <path class="st7" d="M942.6,835.4v-47.8h27.4v8.5h-17.8v10.8h17.3v8.4h-17.3v11.7h17.8v8.5h-27.4Z"/>
    <path class="st7" d="M1008.2,835.4l-2.2-8.5h-14.8l-2.3,8.5h-10.4l14.3-47.8h11.6l14.2,47.8h-10.4ZM998.5,797.7l-5.5,20.8h11.1l-5.6-20.8Z"/>
    <path class="st7" d="M1026.8,835.4v-47.8h9.6v39.3h16.1v8.5h-25.7Z"/>
    <path class="st7" d="M1065.8,835.4v-39.3h-10.7v-8.5h30.9v8.5h-10.7v39.3h-9.6,0Z"/>
    <path class="st7" d="M1121.9,835.4v-20.3h-16.1v20.3h-9.6v-47.8h9.6v19h16.1v-19h9.6v47.8s-9.6,0-9.6,0Z"/>
  </g>
</svg>